<?xml version="1.0" encoding="utf-8"?>
<!-- Generator: Adobe Illustrator 16.0.3, SVG Export Plug-In . SVG Version: 6.00 Build 0)  -->
<!DOCTYPE svg PUBLIC "-//W3C//DTD SVG 1.1//EN" "http://www.w3.org/Graphics/SVG/1.1/DTD/svg11.dtd">
<svg version="1.1" id="Warstwa_1" xmlns="http://www.w3.org/2000/svg" xmlns:xlink="http://www.w3.org/1999/xlink" x="0px" y="0px"
	 width="434px" height="115px" viewBox="0 0 434 115" enable-background="new 0 0 434 115" xml:space="preserve">
<g>
	<g opacity="0.7">
		<path fill-rule="evenodd" clip-rule="evenodd" fill="#180000" d="M84.368,87.299c0.066,0.031,0.13,0.061,0.204,0.093
			C84.442,87.259,84.382,87.25,84.368,87.299z"/>
		<path fill-rule="evenodd" clip-rule="evenodd" fill="#180000" d="M86.923,88.604C86.474,88.291,86.64,88.928,86.923,88.604
			L86.923,88.604z"/>
		<path fill-rule="evenodd" clip-rule="evenodd" fill="#180000" d="M56.934,1.667c-30.625,0-55.45,24.848-55.45,55.5
			c0,30.653,24.824,55.5,55.45,55.5c30.624,0,55.45-24.847,55.45-55.5C112.384,26.515,87.558,1.667,56.934,1.667z M43.543,98.278
			c3.249,1.881,2.316,8.17-0.845,9.571c0.572-0.6,0.905-1.734,0.509-2.807c-0.782,1.6-2.652,3.157-5.077,2.146
			c1.413-0.162,2.583-0.565,2.877-1.813c-1.542,1.33-4.382,0.724-5.244-0.827c1.037,0.355,3.102,0.32,3.722-0.99
			c-2.17,0.191-3.395-0.539-3.213-2.641c2.188,2.82,4.088-2.224,2.029-3.633c-0.027-1.015-0.043-2.021,0.507-2.477
			c-0.178-2.088,0.305-4.145,1.521-6.104c1.119-1.797,3.647-3.023,3.383-5.448c-0.242-2.247-1.514-4.046-1.689-6.437
			c-0.625-8.373,3.482-14.964,6.765-20.14c0.965-1.522,3.22-4.414,2.707-6.273c-0.347-1.24-2.237-1.259-3.215-1.978
			c-1.658-1.223-2.566-4.442-1.354-7.427c-0.769,0.417-1.602,0.373-2.199,0.657c-2.764,1.323-2.69,5.356-6.765,5.119
			c-0.472-0.396,1.55-1.099,1.353-2.311c-0.943,0.224-3.511,0.999-4.398-0.329c1.659-0.256,2.982-0.836,3.555-2.146
			c-1.064-0.079-3.22-0.181-3.384-1.652c1.289,0.292,3.255-0.069,4.568-0.662c-1.086-0.425-2.164-0.861-2.369-2.146
			c0.936,1.002,4.517,1.03,5.92,0.497c1.106-0.422,1.963-1.945,3.383-1.485c0.852-0.163,0.828-1.175,1.69-1.322
			c1.894,0.559,2.224,2.728,3.215,4.127c1.032,1.468,2.243,2.658,3.55,3.798c1.157-1.463,1.239-3.053,2.198-4.458
			c2.456-3.593,7.076-5.856,7.951-10.396c0.811-4.209-2.901-9.221-5.415-11.556c-3.324-3.093-8.547-5.25-13.359-5.614
			c-13.126-0.986-18.995,8.37-23.512,15.681c-0.225,0.036-0.313,0.688-0.336,0c2.083-4.551,4.511-8.539,8.117-11.882
			c3.894-3.611,9.275-6.541,16.071-6.273c3.467,0.137,6.944,1.552,9.638,2.971c7.376,3.887,13.961,10.25,13.189,22.282
			C68.11,57.154,45.638,64.063,49.293,90.518C43.985,89.229,42.326,93.639,43.543,98.278z M86.843,58.66
			c-1.221,0.826-3.134-0.117-4.397-0.66c0.565,1.266,1.739,1.934,3.043,2.477c-2.169,0.574-3.813-0.215-5.076-1.65
			c-1.6-1.815-1.014-5.298-3.212-5.611c-2.845-0.405-2.143,3.409-3.892,4.456c-5.484-2.037-9.782,8.823-7.607,13.37
			c4.328,0.893,5.441-5.616,7.945-5.613c1.354,0.004,1.767,1.789,2.706,3.137c0.572,0.814,1.636,1.426,2.201,2.311
			c1.215,1.906,0.719,6.585,2.468,7.321c-1.612,0.2-1.46-2.471-2.298-3.028c-0.272,1.916,0.429,1.711,0.782,2.469
			c-1.839-0.02-1.7,0.081-2.474-0.984c-0.074,0.222-0.15,0.359-0.216,0.437c0.03,0.022,0.066,0.048,0.103,0.081
			c-1.537,0.117-1.447,0.621-1.916-0.848c-0.333,0.453-0.785-0.373-0.742-0.537c-1.43-0.679-1.137-1.111-0.613-3.588
			c-2.677,0.632-5.856,3.11-7.945,6.108c-1.414,2.024-4.39,9.691-0.339,10.563c1.75,0.377,2.667-1.709,4.224-0.825
			c1.723,0.973,5.562,0.716,5.924,2.311c0.475,2.094-1.946,4.288-3.722,5.774c-2.701,2.269-6.473,3.624-10.993,2.643
			c-2.671-0.578-6.668-3.486-7.611-5.445c-1.161-2.412-1.053-7.64-0.845-10.896c1.192-18.767,18.707-26.35,20.463-46.547
			C74.377,17.785,63.25,7.512,45.742,6.174c18.251-3.158,32.929,9.929,32.138,27.563c-0.257,5.66-1.963,9.33-3.383,14.528
			c2.76,2.366,4.563-2.051,7.61-1.321c0.293,2.732-1.293,7.584,3.549,6.929c-0.24,0.537-0.818,0.745-1.689,0.663
			c0.436,1.062,1.53,1.479,2.877,1.651c-0.426,0.628-1.64,0.488-2.708,0.494C84.584,57.785,85.676,58.26,86.843,58.66z"/>
		<path fill="#180000" d="M151.414,32.777c1.365,0,2.695,0.218,3.993,0.648c1.294,0.434,2.488,1.105,3.58,2.015
			c2.182-1.776,4.729-2.663,7.639-2.663c1.592,0,3.126,0.309,4.604,0.922c1.477,0.615,2.773,1.445,3.888,2.492
			c1.115,1.046,2,2.298,2.66,3.755c0.659,1.457,0.989,3.004,0.989,4.642v17.137c0,1.093-0.455,2.05-1.363,2.868
			c-0.911,0.818-1.957,1.229-3.138,1.229c-1.185,0-2.217-0.443-3.105-1.33c-0.887-0.889-1.33-1.924-1.33-3.107v-16.59
			c0-0.864-0.306-1.593-0.919-2.185c-0.616-0.592-1.378-0.888-2.287-0.888c-0.774,0-1.489,0.264-2.148,0.785
			c-0.661,0.524-0.989,1.288-0.989,2.289v16.59c0,1.229-0.444,2.277-1.33,3.141c-0.887,0.864-1.944,1.297-3.171,1.297
			c-1.137,0-2.161-0.396-3.071-1.194c-0.91-0.796-1.363-1.763-1.363-2.902V44.794c-0.046-0.91-0.388-1.65-1.023-2.219
			c-0.637-0.57-1.341-0.854-2.115-0.854c-0.864,0-1.601,0.296-2.216,0.888c-0.614,0.592-0.945,1.344-0.989,2.253v16.933
			c-0.091,1.092-0.557,2.037-1.397,2.833c-0.844,0.798-1.854,1.194-3.037,1.194c-0.637,0-1.228-0.113-1.773-0.34
			c-0.545-0.229-1.022-0.548-1.433-0.957c-0.409-0.41-0.738-0.888-0.989-1.434c-0.251-0.545-0.352-1.115-0.307-1.707V44.588
			c0-1.592,0.319-3.106,0.956-4.54c0.635-1.432,1.501-2.685,2.591-3.754c1.091-1.07,2.375-1.923,3.853-2.561
			C148.151,33.096,149.731,32.777,151.414,32.777z"/>
		<path fill="#180000" d="M201.139,32.846c2.047,0.229,3.967,0.819,5.765,1.775c1.795,0.955,3.342,2.174,4.637,3.652
			c1.296,1.48,2.322,3.164,3.069,5.052c0.75,1.891,1.127,3.881,1.127,5.975v12.085c0,1.229-0.456,2.277-1.366,3.141
			c-0.911,0.864-1.933,1.297-3.068,1.297c-1.592,0-2.867-0.728-3.821-2.185c-0.227,0.093-0.433,0.194-0.613,0.307
			c-0.182,0.114-0.364,0.217-0.546,0.308c-1.093,0.502-2.205,0.889-3.343,1.16c-1.182,0.274-2.434,0.41-3.751,0.41
			c-3.41,0-6.457-0.922-9.14-2.765c-2.685-1.845-4.684-4.222-6.002-7.135c-0.456-1.045-0.808-2.115-1.059-3.208
			c-0.251-1.094-0.375-2.231-0.375-3.415s0.124-2.321,0.375-3.413s0.603-2.161,1.059-3.209c1.318-2.958,3.318-5.347,6.002-7.169
			c2.684-1.82,5.73-2.731,9.14-2.731c0.364,0,0.692,0,0.989,0C200.514,32.777,200.821,32.8,201.139,32.846z M199.161,56.946
			c1.047,0,2.035-0.193,2.967-0.579c0.931-0.388,1.74-0.923,2.421-1.605c0.682-0.684,1.229-1.49,1.639-2.424
			c0.409-0.933,0.613-1.947,0.613-3.039c0-1-0.205-1.968-0.613-2.902c-0.41-0.932-0.968-1.752-1.673-2.456
			c-0.704-0.707-1.523-1.265-2.455-1.674c-0.933-0.41-1.898-0.614-2.899-0.614c-1,0-1.957,0.205-2.864,0.614
			c-0.91,0.41-1.717,0.968-2.421,1.674c-0.707,0.704-1.262,1.524-1.671,2.456c-0.409,0.934-0.615,1.902-0.615,2.902
			c0,1.048,0.216,2.037,0.649,2.971c0.432,0.933,0.998,1.74,1.704,2.422c0.705,0.684,1.512,1.229,2.421,1.639
			C197.274,56.741,198.206,56.946,199.161,56.946z"/>
		<path fill="#180000" d="M241.998,32.641c1.229,0,2.252,0.467,3.07,1.399c0.817,0.935,1.229,1.924,1.229,2.971
			c0,1.185-0.446,2.22-1.332,3.106c-0.886,0.888-1.875,1.332-2.967,1.332h-11.733c-0.547,0-1.013,0.161-1.399,0.478
			c-0.385,0.319-0.578,0.775-0.578,1.365c0,0.639,0.193,1.127,0.578,1.468c0.387,0.342,0.853,0.513,1.399,0.513h7.71
			c1.405,0,2.714,0.297,3.92,0.888c1.205,0.592,2.252,1.377,3.14,2.354c0.886,0.981,1.58,2.014,2.079,3.106
			c0.5,1.094,0.75,2.323,0.75,3.687c0.045,1.502-0.216,2.915-0.781,4.233c-0.571,1.321-1.332,2.436-2.286,3.346
			c-0.957,0.911-2.069,1.628-3.344,2.149c-1.272,0.526-2.705,0.786-4.3,0.786h-12.549c-1.184,0-2.207-0.41-3.07-1.229
			s-1.297-1.844-1.297-3.073c0-1.136,0.41-2.173,1.229-3.106c0.818-0.933,1.818-1.421,2.999-1.468h12.553
			c1.23,0,1.844-0.545,1.844-1.639c0-1.229-0.613-1.843-1.844-1.843h-7.503c-1.363,0-2.65-0.282-3.854-0.854
			c-1.205-0.567-2.25-1.353-3.136-2.354c-0.889-1-1.583-2.094-2.082-3.277c-0.501-1.184-0.751-2.458-0.751-3.823
			c0-1.366,0.264-2.685,0.785-3.961c0.521-1.273,1.238-2.389,2.148-3.346c0.908-0.954,1.979-1.717,3.206-2.287
			c1.228-0.567,2.569-0.875,4.026-0.921H241.998z"/>
		<path fill="#180000" d="M256.457,22.195c1.273,0,2.343,0.443,3.205,1.331c0.864,0.888,1.342,1.992,1.435,3.311V32.3h11.731
			c1.317,0,2.387,0.456,3.204,1.365c0.82,0.913,1.23,1.981,1.23,3.209c0,1.186-0.457,2.242-1.365,3.174
			c-0.908,0.934-1.934,1.4-3.069,1.4h-11.731v7.509c0,1.048,0.192,2.039,0.579,2.971c0.386,0.935,0.92,1.764,1.604,2.492
			c0.682,0.729,1.489,1.298,2.422,1.708c0.93,0.409,1.942,0.613,3.036,0.613c1.178,0,2.191-0.158,3.033-0.477
			c0.842-0.318,1.579-0.795,2.215-1.434c0.957-0.82,2.013-1.239,3.174-1.263c1.159-0.022,2.239,0.421,3.24,1.333
			c0.453,0.408,0.796,0.876,1.023,1.398c0.225,0.524,0.353,1.071,0.375,1.639c0.021,0.571-0.06,1.128-0.238,1.673
			c-0.183,0.547-0.48,1.024-0.886,1.434c-1.596,1.549-3.345,2.732-5.254,3.551s-3.955,1.229-6.139,1.229
			c-2.364,0-4.594-0.396-6.686-1.194c-2.092-0.796-3.933-1.936-5.524-3.415c-1.591-1.477-2.854-3.252-3.784-5.324
			c-0.933-2.07-1.425-4.379-1.469-6.931V26.496c0-1.228,0.468-2.252,1.4-3.072C254.151,22.604,255.229,22.195,256.457,22.195z"/>
		<path fill="#180000" d="M300.454,32.777c2.183,0,4.271,0.455,6.274,1.366c2,0.911,3.76,2.128,5.285,3.652
			c1.523,1.525,2.739,3.277,3.649,5.257c0.911,1.981,1.366,4.063,1.366,6.247c0,1.184-0.445,2.118-1.332,2.798
			c-0.886,0.685-1.99,1.003-3.31,0.958h-18.144c1.503,2.594,3.572,3.891,6.21,3.891c0.726,0,1.342-0.068,1.839-0.205
			c0.502-0.136,0.944-0.294,1.332-0.477c0.387-0.183,0.773-0.342,1.16-0.478c0.386-0.137,0.829-0.205,1.329-0.205
			c0.954,0.044,1.783,0.317,2.489,0.819s1.229,1.126,1.569,1.877c0.34,0.751,0.453,1.56,0.34,2.425
			c-0.112,0.864-0.512,1.66-1.191,2.389c-1.229,1.001-2.593,1.696-4.096,2.082c-1.499,0.389-3.091,0.604-4.771,0.648
			c-2.186,0.092-4.273-0.307-6.277-1.194c-2-0.888-3.763-2.093-5.285-3.618c-1.525-1.524-2.729-3.312-3.616-5.36
			c-0.887-2.049-1.329-4.165-1.329-6.35c0-2.139,0.442-4.209,1.329-6.213c0.887-2.002,2.081-3.766,3.579-5.292
			c1.503-1.524,3.253-2.741,5.256-3.652C296.111,33.232,298.225,32.777,300.454,32.777z M306.66,45.477
			c-0.773-1.411-1.682-2.401-2.729-2.971c-1.045-0.569-2.205-0.853-3.477-0.853c-1.321,0-2.493,0.284-3.514,0.853
			c-1.023,0.57-1.922,1.56-2.696,2.971H306.66z"/>
		<path fill="#180000" d="M324.531,65.892c-1.228,0-2.251-0.399-3.068-1.195c-0.82-0.796-1.275-1.854-1.366-3.176V48.89
			c0.044-2.184,0.51-4.244,1.4-6.178c0.884-1.934,2.067-3.619,3.546-5.053c1.477-1.433,3.207-2.571,5.183-3.414
			c1.98-0.84,4.081-1.307,6.309-1.399c1.274,0,2.33,0.434,3.174,1.297c0.842,0.865,1.308,1.912,1.398,3.14
			c0,1.23-0.434,2.266-1.297,3.107c-0.864,0.844-1.932,1.287-3.204,1.331c-1.046,0-2.025,0.195-2.936,0.581
			c-0.908,0.387-1.703,0.922-2.387,1.604c-0.682,0.682-1.226,1.492-1.637,2.425c-0.408,0.932-0.615,1.944-0.615,3.038v12.426
			c-0.091,1.184-0.533,2.162-1.331,2.935C326.906,65.504,325.85,65.892,324.531,65.892z"/>
		<path fill="#180000" d="M360.273,32.846c2.046,0.229,3.968,0.819,5.764,1.775c1.796,0.955,3.344,2.174,4.64,3.652
			c1.295,1.48,2.318,3.164,3.069,5.052c0.747,1.891,1.124,3.881,1.124,5.975v12.085c0,1.229-0.455,2.277-1.363,3.141
			c-0.91,0.864-1.932,1.297-3.07,1.297c-1.593,0-2.866-0.728-3.821-2.185c-0.227,0.093-0.428,0.194-0.613,0.307
			c-0.182,0.114-0.363,0.217-0.544,0.308c-1.092,0.502-2.209,0.889-3.341,1.16c-1.186,0.274-2.437,0.41-3.753,0.41
			c-3.412,0-6.456-0.922-9.141-2.765c-2.685-1.845-4.686-4.222-6.004-7.135c-0.456-1.045-0.808-2.115-1.056-3.208
			c-0.252-1.094-0.377-2.231-0.377-3.415s0.125-2.321,0.377-3.413c0.248-1.092,0.6-2.161,1.056-3.209
			c1.318-2.958,3.319-5.347,6.004-7.169c2.685-1.82,5.729-2.731,9.141-2.731c0.362,0,0.692,0,0.989,0
			C359.646,32.777,359.954,32.8,360.273,32.846z M358.296,56.946c1.045,0,2.034-0.193,2.967-0.579
			c0.931-0.388,1.737-0.923,2.419-1.605c0.685-0.684,1.229-1.49,1.639-2.424c0.409-0.933,0.613-1.947,0.613-3.039
			c0-1-0.204-1.968-0.613-2.902c-0.41-0.932-0.967-1.752-1.671-2.456c-0.703-0.707-1.525-1.265-2.455-1.674
			c-0.933-0.41-1.899-0.614-2.898-0.614c-1.002,0-1.956,0.205-2.864,0.614c-0.911,0.41-1.721,0.968-2.424,1.674
			c-0.704,0.704-1.263,1.524-1.671,2.456c-0.409,0.934-0.612,1.902-0.612,2.902c0,1.048,0.213,2.037,0.646,2.971
			c0.431,0.933,1.002,1.74,1.705,2.422c0.705,0.684,1.511,1.229,2.422,1.639C356.408,56.741,357.339,56.946,358.296,56.946z"/>
		<path fill="#180000" d="M383.465,22.401c1.229,0,2.262,0.432,3.101,1.296c0.842,0.865,1.31,1.936,1.4,3.21v26.969
			c0,0.91,0.296,1.684,0.889,2.321c0.59,0.637,1.339,0.955,2.249,0.955c1.181,0,2.219,0.411,3.104,1.23
			c0.887,0.818,1.352,1.844,1.397,3.072c0,1.094-0.376,2.061-1.126,2.902c-0.751,0.842-1.718,1.354-2.898,1.536h-0.956
			c-1.592,0-3.09-0.329-4.5-0.991c-1.409-0.658-2.652-1.536-3.718-2.628c-1.067-1.092-1.912-2.367-2.524-3.825
			c-0.613-1.454-0.92-2.979-0.92-4.572V26.634c0.135-1.139,0.614-2.117,1.435-2.937C381.212,22.878,382.235,22.445,383.465,22.401z"
			/>
		<path fill="#180000" d="M402.833,22.264c0.591-0.046,1.164,0.058,1.707,0.307c0.544,0.25,1.034,0.579,1.47,0.991
			c0.428,0.408,0.758,0.897,0.988,1.467c0.225,0.568,0.338,1.149,0.338,1.74v7.852c1.592-0.819,3.24-1.354,4.945-1.604
			c1.708-0.25,3.401-0.25,5.084,0c1.681,0.251,3.316,0.751,4.912,1.502c1.592,0.75,3.067,1.765,4.434,3.037
			c1.589,1.639,2.783,3.404,3.577,5.292c0.797,1.891,1.196,4.04,1.196,6.452c0,2.277-0.443,4.416-1.331,6.419
			c-0.887,2.003-2.079,3.756-3.58,5.257c-1.502,1.501-3.253,2.687-5.254,3.55c-2.001,0.864-4.116,1.297-6.344,1.297
			c-2.181,0-4.276-0.443-6.274-1.33c-2.006-0.889-3.762-2.083-5.285-3.585c-1.526-1.503-2.741-3.255-3.651-5.257
			c-0.908-2.003-1.363-4.118-1.363-6.35V26.427c0-0.545,0.138-1.08,0.411-1.604c0.272-0.521,0.609-0.978,1.023-1.365
			c0.406-0.386,0.874-0.693,1.397-0.923C401.755,22.31,402.291,22.218,402.833,22.264z M407.336,49.3
			c0,1.048,0.206,2.037,0.615,2.971c0.411,0.933,0.964,1.74,1.671,2.422c0.705,0.684,1.511,1.229,2.424,1.639
			c0.908,0.41,1.887,0.615,2.93,0.615c0.999,0,1.969-0.205,2.898-0.615c0.933-0.409,1.753-0.955,2.456-1.639
			c0.704-0.682,1.263-1.49,1.671-2.422c0.411-0.934,0.617-1.922,0.617-2.971c0-1.045-0.206-2.037-0.617-2.969
			c-0.408-0.933-0.967-1.743-1.671-2.425c-0.703-0.682-1.523-1.229-2.456-1.639c-0.93-0.41-1.899-0.614-2.898-0.614
			c-1.043,0-2.021,0.216-2.93,0.648c-0.913,0.434-1.719,1.001-2.424,1.708c-0.707,0.705-1.26,1.525-1.671,2.456
			C407.542,47.399,407.336,48.345,407.336,49.3z"/>
		<path fill="#180000" d="M149.242,77.521c-0.529-0.466-1.13-0.84-1.806-1.126c-0.676-0.285-1.404-0.429-2.183-0.429
			c-0.782,0-1.516,0.149-2.201,0.444c-0.687,0.298-1.288,0.703-1.805,1.221c-0.517,0.517-0.923,1.123-1.22,1.822
			c-0.294,0.695-0.443,1.436-0.443,2.217c0,0.783,0.149,1.517,0.443,2.203c0.297,0.686,0.703,1.288,1.22,1.805
			c0.517,0.519,1.118,0.925,1.805,1.221c0.685,0.295,1.418,0.443,2.201,0.443c0.779,0,1.507-0.143,2.183-0.428
			c0.675-0.285,1.277-0.682,1.806-1.188c0.189-0.191,0.421-0.285,0.696-0.285c0.273,0,0.506,0.094,0.695,0.285
			c0.191,0.19,0.279,0.428,0.27,0.711c-0.011,0.286-0.133,0.544-0.364,0.777c-0.189,0.19-0.448,0.409-0.775,0.652
			c-0.328,0.24-0.718,0.47-1.171,0.679c-0.454,0.212-0.96,0.386-1.52,0.522c-0.56,0.139-1.165,0.206-1.82,0.206
			c-1.057,0-2.043-0.189-2.96-0.568c-0.917-0.382-1.725-0.909-2.421-1.587c-0.696-0.675-1.246-1.479-1.647-2.407
			c-0.4-0.928-0.601-1.942-0.601-3.042c0-1.055,0.194-2.044,0.586-2.962c0.388-0.919,0.926-1.721,1.614-2.408
			c0.684-0.687,1.497-1.235,2.437-1.649c0.939-0.41,1.956-0.637,3.054-0.68c0.634,0,1.22,0.078,1.758,0.236
			c0.538,0.16,1.023,0.35,1.456,0.571c0.433,0.223,0.817,0.46,1.156,0.714c0.337,0.254,0.61,0.474,0.823,0.664
			c0.125,0.106,0.238,0.302,0.331,0.587c0.096,0.285,0.027,0.544-0.206,0.777c-0.189,0.188-0.422,0.285-0.695,0.285
			C149.663,77.806,149.431,77.709,149.242,77.521z"/>
		<path fill="#180000" d="M152.406,81.481c0-1.036,0.195-2.013,0.585-2.932c0.392-0.919,0.928-1.728,1.614-2.424
			c0.687-0.697,1.481-1.246,2.391-1.647c0.907-0.401,1.877-0.613,2.912-0.635c0.337,0,0.607,0.096,0.808,0.286s0.3,0.423,0.3,0.696
			c0,0.276-0.099,0.507-0.3,0.695c-0.201,0.191-0.47,0.286-0.808,0.286c-0.76,0.021-1.477,0.187-2.153,0.492
			c-0.676,0.307-1.265,0.714-1.771,1.221c-0.507,0.505-0.902,1.104-1.187,1.79c-0.285,0.686-0.427,1.41-0.427,2.171v6.78
			c0,0.274-0.096,0.506-0.285,0.696c-0.192,0.19-0.423,0.286-0.696,0.286c-0.275,0-0.507-0.096-0.696-0.286
			c-0.192-0.19-0.286-0.422-0.286-0.696V81.481z"/>
		<path fill="#180000" d="M162.029,82.525c0.106,0.678,0.328,1.305,0.665,1.885c0.337,0.584,0.755,1.084,1.25,1.507
			c0.496,0.423,1.06,0.755,1.695,0.997c0.632,0.244,1.296,0.365,1.993,0.365c0.78,0,1.509-0.143,2.185-0.428
			c0.677-0.287,1.276-0.682,1.804-1.188c0.189-0.191,0.423-0.287,0.696-0.287c0.274,0,0.507,0.096,0.698,0.287
			c0.188,0.188,0.284,0.421,0.284,0.696c0,0.274-0.096,0.505-0.284,0.696c-0.698,0.783-1.485,1.337-2.36,1.664
			c-0.877,0.328-1.883,0.49-3.023,0.49c-1.055,0-2.042-0.19-2.96-0.57c-0.917-0.379-1.725-0.907-2.421-1.584
			c-0.696-0.675-1.245-1.479-1.646-2.408c-0.401-0.929-0.601-1.942-0.601-3.039c0-1.059,0.193-2.045,0.584-2.965
			c0.39-0.92,0.929-1.723,1.615-2.407c0.684-0.687,1.499-1.236,2.437-1.648c0.94-0.411,1.958-0.64,3.056-0.683
			c1.013,0,1.966,0.202,2.865,0.604c0.896,0.402,1.693,0.939,2.392,1.616c0.695,0.677,1.247,1.468,1.661,2.376
			c0.411,0.908,0.637,1.88,0.679,2.916c0.043,0.357-0.047,0.633-0.268,0.823c-0.222,0.188-0.458,0.284-0.711,0.284H162.029z
			 M167.632,75.904c-0.696,0-1.356,0.121-1.978,0.363c-0.623,0.244-1.181,0.57-1.678,0.982c-0.495,0.413-0.908,0.903-1.234,1.475
			c-0.328,0.568-0.555,1.182-0.682,1.836h11.175c-0.125-0.654-0.359-1.268-0.696-1.836c-0.337-0.571-0.754-1.062-1.25-1.475
			c-0.497-0.412-1.056-0.738-1.678-0.982C168.988,76.025,168.329,75.904,167.632,75.904z"/>
		<path fill="#180000" d="M184.219,73.906c1.014,0,1.979,0.207,2.899,0.618c0.917,0.412,1.724,0.968,2.421,1.665
			c0.696,0.697,1.249,1.51,1.661,2.439c0.413,0.93,0.618,1.922,0.618,2.98v6.682c0,0.277-0.097,0.51-0.286,0.699
			c-0.189,0.188-0.423,0.284-0.696,0.284c-0.274,0-0.504-0.096-0.696-0.284c-0.189-0.189-0.286-0.422-0.286-0.699V86.36
			c-0.694,0.781-1.535,1.452-2.514,2.012c-0.983,0.56-2.042,0.839-3.182,0.839c-1.055,0-2.042-0.19-2.959-0.57
			c-0.918-0.379-1.726-0.907-2.422-1.584c-0.696-0.675-1.246-1.479-1.647-2.408c-0.4-0.929-0.601-1.942-0.601-3.039
			c0-1.059,0.194-2.045,0.585-2.965c0.39-0.92,0.929-1.723,1.614-2.407c0.687-0.687,1.498-1.236,2.438-1.648
			C182.103,74.178,183.122,73.949,184.219,73.906z M178.491,81.609c0,0.779,0.148,1.513,0.443,2.199
			c0.295,0.688,0.7,1.291,1.218,1.808c0.518,0.517,1.118,0.923,1.807,1.22c0.684,0.297,1.418,0.443,2.199,0.443
			c0.759,0,1.477-0.143,2.152-0.428c0.676-0.287,1.27-0.682,1.788-1.188c0.518-0.509,0.93-1.105,1.235-1.791
			c0.306-0.687,0.48-1.443,0.521-2.264c0-0.783-0.147-1.522-0.443-2.221c-0.295-0.695-0.701-1.303-1.219-1.822
			c-0.515-0.517-1.123-0.924-1.819-1.221c-0.696-0.293-1.435-0.441-2.215-0.441c-0.781,0-1.515,0.148-2.199,0.441
			c-0.689,0.297-1.289,0.704-1.807,1.221c-0.518,0.52-0.922,1.127-1.218,1.822C178.639,80.087,178.491,80.826,178.491,81.609z"/>
		<path fill="#180000" d="M193.432,69.883c0-0.273,0.095-0.506,0.285-0.697c0.19-0.189,0.422-0.283,0.698-0.283
			c0.273,0,0.507,0.094,0.695,0.283c0.19,0.191,0.285,0.424,0.285,0.697v3.898h6.995c0.339,0,0.607,0.096,0.809,0.283
			c0.2,0.191,0.3,0.424,0.3,0.699c0,0.274-0.101,0.506-0.3,0.697c-0.202,0.188-0.47,0.285-0.809,0.285h-6.995v5.863
			c0,0.779,0.148,1.513,0.443,2.199c0.296,0.688,0.702,1.291,1.219,1.808c0.517,0.517,1.118,0.923,1.803,1.22
			c0.687,0.297,1.42,0.443,2.2,0.443c0.781,0,1.508-0.143,2.185-0.428c0.675-0.287,1.267-0.682,1.774-1.188
			c0.167-0.191,0.384-0.303,0.647-0.333c0.263-0.032,0.512,0.036,0.746,0.204c0.167,0.172,0.273,0.382,0.315,0.635
			c0.042,0.253-0.01,0.497-0.158,0.729c-0.696,0.74-1.521,1.315-2.47,1.727c-0.947,0.412-1.963,0.619-3.039,0.619
			c-1.055,0-2.045-0.203-2.975-0.604c-0.929-0.4-1.737-0.943-2.421-1.631c-0.687-0.688-1.23-1.494-1.631-2.424
			c-0.399-0.931-0.601-1.922-0.601-2.977V69.883z"/>
		<path fill="#180000" d="M207.454,70.454c0-0.358,0.126-0.665,0.381-0.919c0.252-0.254,0.559-0.381,0.917-0.381
			c0.359,0,0.666,0.127,0.919,0.381c0.252,0.254,0.379,0.561,0.379,0.919s-0.127,0.665-0.379,0.919
			c-0.253,0.252-0.56,0.381-0.919,0.381c-0.358,0-0.665-0.129-0.917-0.381C207.581,71.119,207.454,70.813,207.454,70.454z
			 M207.772,74.826c0-0.273,0.094-0.506,0.283-0.696c0.19-0.19,0.421-0.286,0.697-0.286c0.275,0,0.507,0.096,0.696,0.286
			c0.191,0.19,0.287,0.423,0.287,0.696v13.436c0,0.274-0.096,0.506-0.287,0.696c-0.189,0.19-0.421,0.286-0.696,0.286
			c-0.276,0-0.507-0.096-0.697-0.286c-0.189-0.19-0.283-0.422-0.283-0.696V74.826z"/>
		<path fill="#180000" d="M211.19,75.303c-0.106-0.254-0.106-0.518,0-0.793c0.105-0.273,0.273-0.465,0.507-0.57
			c0.252-0.106,0.49-0.089,0.711,0.048c0.223,0.138,0.408,0.301,0.553,0.491l4.115,11.215l4.276-11.215
			c0.146-0.232,0.335-0.401,0.567-0.508c0.233-0.105,0.466-0.105,0.698,0c0.25,0.106,0.427,0.285,0.522,0.539
			c0.094,0.254,0.089,0.496-0.017,0.729c-0.021,0.043-0.102,0.26-0.238,0.65c-0.137,0.39-0.391,1.077-0.759,2.06
			c-0.37,0.981-0.876,2.323-1.519,4.022c-0.645,1.701-1.474,3.861-2.484,6.48c-0.086,0.232-0.208,0.424-0.368,0.569
			c-0.157,0.149-0.383,0.224-0.68,0.224c-0.294,0-0.531-0.09-0.71-0.27c-0.18-0.18-0.301-0.354-0.366-0.523
			c-0.885-2.43-1.634-4.478-2.247-6.146c-0.612-1.67-1.107-3.02-1.487-4.057c-0.38-1.034-0.653-1.779-0.823-2.234
			C211.274,75.561,211.19,75.323,211.19,75.303z"/>
		<path fill="#180000" d="M225.245,82.525c0.106,0.678,0.327,1.305,0.666,1.885c0.335,0.584,0.751,1.084,1.249,1.507
			c0.496,0.423,1.062,0.755,1.693,0.997c0.634,0.244,1.299,0.365,1.997,0.365c0.777,0,1.506-0.143,2.183-0.428
			c0.677-0.287,1.277-0.682,1.804-1.188c0.191-0.191,0.421-0.287,0.696-0.287s0.507,0.096,0.699,0.287
			c0.189,0.188,0.283,0.421,0.283,0.696c0,0.274-0.094,0.505-0.283,0.696c-0.699,0.783-1.484,1.337-2.359,1.664
			c-0.877,0.328-1.883,0.49-3.022,0.49c-1.058,0-2.042-0.19-2.963-0.57c-0.917-0.379-1.725-0.907-2.419-1.584
			c-0.698-0.675-1.247-1.479-1.648-2.408c-0.4-0.929-0.6-1.942-0.6-3.039c0-1.059,0.192-2.045,0.586-2.965
			c0.389-0.92,0.927-1.723,1.613-2.407c0.685-0.687,1.498-1.236,2.438-1.648c0.937-0.411,1.956-0.64,3.054-0.683
			c1.014,0,1.969,0.202,2.864,0.604c0.896,0.402,1.695,0.939,2.392,1.616c0.693,0.677,1.248,1.468,1.664,2.376
			c0.408,0.908,0.635,1.88,0.68,2.916c0.041,0.357-0.047,0.633-0.271,0.823c-0.221,0.188-0.457,0.284-0.711,0.284H225.245z
			 M230.851,75.904c-0.698,0-1.358,0.121-1.981,0.363c-0.621,0.244-1.181,0.57-1.676,0.982c-0.498,0.413-0.908,0.903-1.234,1.475
			c-0.328,0.568-0.557,1.182-0.682,1.836h11.174c-0.125-0.654-0.357-1.268-0.696-1.836c-0.337-0.571-0.753-1.062-1.248-1.475
			c-0.497-0.412-1.056-0.738-1.681-0.982C232.204,76.025,231.547,75.904,230.851,75.904z"/>
		<path fill="#180000" d="M140.831,96.306c0-0.095,0.033-0.174,0.097-0.239c0.065-0.064,0.146-0.098,0.24-0.098
			c0.094,0,0.173,0.033,0.238,0.098c0.066,0.065,0.098,0.145,0.098,0.239v3.153c0,0.154,0.029,0.296,0.087,0.43
			c0.058,0.137,0.135,0.254,0.232,0.354c0.1,0.104,0.215,0.183,0.349,0.24c0.134,0.059,0.276,0.088,0.428,0.088
			c0.153,0,0.295-0.029,0.43-0.088c0.134-0.058,0.252-0.137,0.353-0.24c0.102-0.1,0.181-0.217,0.24-0.354
			c0.058-0.134,0.087-0.275,0.087-0.43v-3.153c0-0.095,0.032-0.174,0.097-0.239c0.065-0.064,0.144-0.098,0.24-0.098
			c0.094,0,0.172,0.033,0.237,0.098c0.067,0.065,0.1,0.145,0.1,0.239v3.153c0,0.248-0.049,0.48-0.142,0.697
			c-0.095,0.217-0.222,0.407-0.381,0.566c-0.159,0.158-0.348,0.285-0.565,0.381c-0.216,0.094-0.448,0.141-0.696,0.141
			c-0.304,0-0.579-0.066-0.824-0.202c-0.247-0.132-0.454-0.313-0.62-0.538c-0.16,0.226-0.363,0.406-0.607,0.538
			c-0.249,0.136-0.522,0.202-0.828,0.202c-0.245,0-0.476-0.047-0.695-0.141c-0.217-0.096-0.405-0.223-0.564-0.381
			c-0.159-0.159-0.284-0.35-0.375-0.566c-0.092-0.217-0.136-0.449-0.136-0.697v-3.153c0-0.095,0.032-0.174,0.099-0.239
			c0.065-0.064,0.144-0.098,0.238-0.098c0.093,0,0.174,0.033,0.239,0.098c0.066,0.065,0.098,0.145,0.098,0.239v3.153
			c0,0.154,0.029,0.296,0.086,0.43c0.058,0.137,0.135,0.254,0.234,0.354c0.098,0.104,0.214,0.183,0.347,0.24
			c0.136,0.059,0.278,0.088,0.43,0.088c0.299,0,0.553-0.105,0.766-0.316c0.215-0.209,0.328-0.475,0.344-0.795V96.306z"/>
		<path fill="#180000" d="M147.916,96.306c0-0.095,0.032-0.174,0.098-0.239c0.063-0.064,0.144-0.098,0.238-0.098
			s0.172,0.033,0.239,0.098c0.066,0.065,0.099,0.145,0.099,0.239v3.153c0,0.154,0.027,0.296,0.086,0.43
			c0.057,0.137,0.136,0.254,0.234,0.354c0.097,0.104,0.213,0.183,0.347,0.24c0.134,0.059,0.278,0.088,0.431,0.088
			c0.15,0,0.295-0.029,0.428-0.088c0.134-0.058,0.252-0.137,0.355-0.24c0.101-0.1,0.18-0.217,0.238-0.354
			c0.058-0.134,0.086-0.275,0.086-0.43v-3.153c0-0.095,0.033-0.174,0.098-0.239c0.064-0.064,0.145-0.098,0.239-0.098
			c0.095,0,0.174,0.033,0.24,0.098c0.065,0.065,0.097,0.145,0.097,0.239v3.153c0,0.248-0.046,0.48-0.142,0.697
			c-0.095,0.217-0.22,0.407-0.38,0.566c-0.16,0.158-0.347,0.285-0.565,0.381c-0.218,0.094-0.449,0.141-0.695,0.141
			c-0.305,0-0.58-0.066-0.826-0.202c-0.246-0.132-0.453-0.313-0.621-0.538c-0.16,0.226-0.361,0.406-0.607,0.538
			c-0.247,0.136-0.522,0.202-0.826,0.202c-0.247,0-0.479-0.047-0.695-0.141c-0.218-0.096-0.407-0.223-0.565-0.381
			c-0.159-0.159-0.284-0.35-0.375-0.566c-0.091-0.217-0.135-0.449-0.135-0.697v-3.153c0-0.095,0.032-0.174,0.097-0.239
			c0.065-0.064,0.144-0.098,0.238-0.098c0.094,0,0.175,0.033,0.241,0.098c0.064,0.065,0.096,0.145,0.096,0.239v3.153
			c0,0.154,0.031,0.296,0.089,0.43c0.058,0.137,0.135,0.254,0.232,0.354c0.097,0.104,0.215,0.183,0.347,0.24
			c0.137,0.059,0.279,0.088,0.431,0.088c0.296,0,0.552-0.105,0.766-0.316c0.213-0.209,0.328-0.475,0.343-0.795V96.306z"/>
		<path fill="#180000" d="M155,96.306c0-0.095,0.032-0.174,0.098-0.239c0.065-0.064,0.146-0.098,0.239-0.098
			c0.095,0,0.175,0.033,0.238,0.098c0.066,0.065,0.099,0.145,0.099,0.239v3.153c0,0.154,0.029,0.296,0.086,0.43
			c0.059,0.137,0.135,0.254,0.233,0.354c0.099,0.104,0.214,0.183,0.348,0.24c0.134,0.059,0.278,0.088,0.431,0.088
			c0.151,0,0.294-0.029,0.427-0.088c0.135-0.058,0.253-0.137,0.354-0.24c0.102-0.1,0.182-0.217,0.239-0.354
			c0.059-0.134,0.088-0.275,0.088-0.43v-3.153c0-0.095,0.032-0.174,0.096-0.239c0.065-0.064,0.146-0.098,0.241-0.098
			c0.092,0,0.173,0.033,0.238,0.098c0.064,0.065,0.097,0.145,0.097,0.239v3.153c0,0.248-0.046,0.48-0.141,0.697
			s-0.222,0.407-0.381,0.566c-0.157,0.158-0.347,0.285-0.563,0.381c-0.219,0.094-0.451,0.141-0.695,0.141
			c-0.306,0-0.579-0.066-0.827-0.202c-0.246-0.132-0.454-0.313-0.62-0.538c-0.159,0.226-0.361,0.406-0.609,0.538
			c-0.245,0.136-0.521,0.202-0.824,0.202c-0.249,0-0.48-0.047-0.696-0.141c-0.217-0.096-0.405-0.223-0.563-0.381
			c-0.16-0.159-0.285-0.35-0.377-0.566c-0.089-0.217-0.135-0.449-0.135-0.697v-3.153c0-0.095,0.032-0.174,0.097-0.239
			c0.065-0.064,0.145-0.098,0.24-0.098c0.093,0,0.175,0.033,0.239,0.098c0.063,0.065,0.097,0.145,0.097,0.239v3.153
			c0,0.154,0.031,0.296,0.088,0.43c0.059,0.137,0.135,0.254,0.234,0.354c0.098,0.104,0.214,0.183,0.348,0.24
			c0.134,0.059,0.277,0.088,0.43,0.088c0.295,0,0.551-0.105,0.765-0.316c0.214-0.209,0.328-0.475,0.342-0.795V96.306z"/>
		<path fill="#180000" d="M158.762,100.799c0-0.124,0.042-0.229,0.127-0.316c0.089-0.087,0.193-0.13,0.315-0.13
			c0.123,0,0.229,0.043,0.317,0.13c0.086,0.088,0.129,0.192,0.129,0.316c0,0.122-0.043,0.228-0.129,0.314
			c-0.089,0.089-0.194,0.131-0.317,0.131c-0.122,0-0.226-0.042-0.315-0.131C158.804,101.026,158.762,100.921,158.762,100.799z"/>
		<path fill="#180000" d="M163.106,97.753c-0.014-0.319-0.128-0.583-0.341-0.794c-0.214-0.21-0.47-0.316-0.768-0.316
			c-0.151,0-0.294,0.03-0.428,0.087c-0.134,0.059-0.25,0.138-0.349,0.24c-0.097,0.101-0.176,0.22-0.232,0.354
			c-0.059,0.134-0.088,0.276-0.088,0.43v3.153c0,0.095-0.032,0.176-0.098,0.24c-0.065,0.064-0.145,0.098-0.237,0.098
			c-0.096,0-0.174-0.033-0.241-0.098c-0.063-0.064-0.097-0.146-0.097-0.24v-3.153c0-0.247,0.045-0.479,0.135-0.697
			c0.091-0.216,0.217-0.405,0.375-0.565c0.16-0.159,0.348-0.285,0.564-0.38c0.218-0.095,0.449-0.142,0.695-0.142
			c0.306,0,0.581,0.067,0.827,0.201c0.246,0.135,0.448,0.313,0.607,0.539c0.167-0.226,0.374-0.404,0.62-0.539
			c0.246-0.134,0.521-0.201,0.827-0.201c0.246,0,0.477,0.047,0.694,0.142c0.217,0.095,0.406,0.221,0.564,0.38
			c0.162,0.16,0.287,0.35,0.382,0.565c0.094,0.218,0.141,0.45,0.141,0.697v3.153c0,0.095-0.033,0.176-0.098,0.24
			c-0.064,0.064-0.146,0.098-0.238,0.098c-0.095,0-0.173-0.033-0.24-0.098c-0.067-0.064-0.099-0.146-0.099-0.24v-3.153
			c0-0.153-0.029-0.296-0.086-0.43c-0.059-0.134-0.138-0.253-0.239-0.354c-0.103-0.103-0.219-0.182-0.354-0.24
			c-0.134-0.057-0.279-0.087-0.429-0.087c-0.153,0-0.297,0.03-0.431,0.087c-0.134,0.059-0.25,0.138-0.347,0.24
			c-0.097,0.101-0.177,0.22-0.234,0.354c-0.059,0.134-0.086,0.276-0.086,0.43v3.153c0,0.095-0.033,0.176-0.098,0.24
			c-0.067,0.064-0.146,0.098-0.239,0.098c-0.096,0-0.174-0.033-0.238-0.098c-0.067-0.064-0.1-0.146-0.1-0.24V97.753z"/>
		<path fill="#180000" d="M169.867,95.979c0.347,0,0.679,0.072,0.994,0.213c0.315,0.142,0.592,0.332,0.832,0.572
			c0.239,0.238,0.428,0.518,0.57,0.836c0.141,0.32,0.213,0.662,0.213,1.023v2.296c0,0.093-0.032,0.173-0.1,0.237
			c-0.065,0.066-0.144,0.1-0.238,0.1c-0.093,0-0.174-0.033-0.239-0.1c-0.063-0.064-0.098-0.145-0.098-0.237v-0.665
			c-0.239,0.268-0.526,0.498-0.864,0.689c-0.338,0.193-0.701,0.289-1.092,0.289c-0.362,0-0.702-0.064-1.017-0.195
			s-0.591-0.312-0.832-0.543c-0.238-0.231-0.428-0.509-0.565-0.826c-0.137-0.319-0.205-0.668-0.205-1.045
			c0-0.361,0.066-0.701,0.199-1.017c0.135-0.316,0.32-0.591,0.556-0.828c0.235-0.235,0.513-0.425,0.836-0.566
			C169.141,96.071,169.49,95.994,169.867,95.979z M167.898,98.623c0,0.268,0.052,0.519,0.153,0.754
			c0.102,0.237,0.242,0.443,0.418,0.621c0.178,0.178,0.386,0.318,0.62,0.42c0.236,0.102,0.487,0.152,0.756,0.152
			c0.261,0,0.507-0.049,0.739-0.146c0.23-0.098,0.436-0.235,0.614-0.409c0.177-0.173,0.319-0.379,0.423-0.615
			c0.106-0.234,0.165-0.493,0.18-0.776c0-0.27-0.051-0.521-0.153-0.762c-0.101-0.238-0.241-0.448-0.418-0.625
			c-0.177-0.178-0.384-0.317-0.625-0.418c-0.239-0.102-0.492-0.153-0.76-0.153c-0.269,0-0.52,0.052-0.756,0.153
			c-0.233,0.101-0.441,0.24-0.62,0.418c-0.176,0.177-0.316,0.387-0.418,0.625C167.95,98.102,167.898,98.354,167.898,98.623z"/>
		<path fill="#180000" d="M173.127,100.906c0-0.094,0.032-0.174,0.097-0.238c0.065-0.064,0.145-0.098,0.24-0.098h2.347
			c0.209,0,0.392-0.076,0.542-0.229c0.153-0.152,0.23-0.333,0.23-0.544c0-0.21-0.077-0.393-0.23-0.543
			c-0.15-0.153-0.332-0.229-0.542-0.229h-1.272c-0.21,0-0.408-0.039-0.593-0.118c-0.185-0.08-0.346-0.189-0.482-0.328
			c-0.138-0.137-0.248-0.297-0.327-0.482c-0.08-0.186-0.119-0.383-0.119-0.594s0.039-0.408,0.119-0.598
			c0.079-0.188,0.188-0.352,0.327-0.49c0.136-0.137,0.297-0.246,0.482-0.324c0.185-0.082,0.383-0.121,0.593-0.121h2.216
			c0.095,0,0.176,0.033,0.24,0.098c0.064,0.065,0.097,0.145,0.097,0.239s-0.033,0.175-0.097,0.238
			c-0.063,0.065-0.145,0.099-0.24,0.099h-2.216c-0.232,0.008-0.431,0.095-0.598,0.262c-0.167,0.166-0.251,0.366-0.251,0.598
			s0.083,0.433,0.251,0.6c0.167,0.166,0.365,0.25,0.598,0.25h1.272c0.195,0,0.381,0.037,0.559,0.112
			c0.177,0.078,0.333,0.182,0.462,0.311c0.131,0.132,0.234,0.286,0.31,0.462c0.077,0.18,0.113,0.365,0.113,0.561
			s-0.037,0.383-0.113,0.562c-0.076,0.176-0.179,0.331-0.31,0.462c-0.13,0.13-0.285,0.235-0.462,0.309
			c-0.177,0.077-0.364,0.115-0.559,0.115h-2.347c-0.095,0-0.175-0.033-0.24-0.098C173.159,101.082,173.127,101.001,173.127,100.906z
			"/>
		<path fill="#180000" d="M177.8,94.544c0-0.093,0.032-0.174,0.097-0.239c0.065-0.064,0.144-0.1,0.238-0.1
			c0.096,0,0.174,0.035,0.241,0.1c0.064,0.065,0.097,0.146,0.097,0.239v1.392h2.403c0.113,0,0.209,0.033,0.275,0.099
			c0.069,0.064,0.104,0.146,0.104,0.239s-0.034,0.173-0.104,0.24c-0.066,0.064-0.162,0.096-0.275,0.096h-2.403v2.014
			c0,0.268,0.05,0.519,0.153,0.754c0.1,0.237,0.24,0.443,0.419,0.621c0.176,0.178,0.382,0.318,0.618,0.42
			c0.236,0.102,0.487,0.152,0.755,0.152c0.269,0,0.518-0.049,0.75-0.146c0.231-0.098,0.433-0.235,0.608-0.409
			c0.059-0.064,0.132-0.103,0.222-0.113c0.091-0.013,0.177,0.012,0.256,0.069c0.059,0.061,0.095,0.131,0.111,0.218
			c0.015,0.088-0.005,0.171-0.056,0.25c-0.24,0.255-0.522,0.452-0.847,0.593c-0.328,0.142-0.674,0.213-1.044,0.213
			c-0.362,0-0.704-0.067-1.022-0.207c-0.317-0.138-0.596-0.324-0.83-0.561c-0.235-0.234-0.421-0.512-0.559-0.832
			c-0.14-0.317-0.207-0.659-0.207-1.021V94.544z"/>
		<path fill="#180000" d="M183.342,98.938c0.035,0.231,0.112,0.446,0.228,0.647c0.114,0.199,0.258,0.371,0.428,0.516
			c0.171,0.146,0.364,0.26,0.581,0.344c0.218,0.082,0.447,0.125,0.686,0.125c0.268,0,0.521-0.049,0.75-0.146
			c0.231-0.098,0.438-0.235,0.619-0.409c0.066-0.064,0.145-0.099,0.24-0.099c0.095,0,0.173,0.034,0.24,0.099
			c0.063,0.065,0.096,0.146,0.096,0.239c0,0.095-0.033,0.176-0.096,0.24c-0.24,0.268-0.51,0.459-0.81,0.57
			c-0.303,0.113-0.647,0.168-1.04,0.168c-0.361,0-0.7-0.064-1.015-0.195c-0.317-0.131-0.593-0.312-0.832-0.543
			s-0.428-0.509-0.566-0.826c-0.137-0.319-0.204-0.668-0.204-1.045c0-0.361,0.065-0.701,0.199-1.017
			c0.134-0.316,0.32-0.591,0.555-0.828c0.235-0.235,0.513-0.425,0.837-0.566c0.321-0.141,0.671-0.218,1.049-0.233
			c0.347,0,0.674,0.07,0.983,0.209c0.306,0.138,0.582,0.322,0.821,0.553c0.239,0.233,0.428,0.505,0.569,0.817
			c0.142,0.312,0.218,0.645,0.235,0.999c0.014,0.125-0.017,0.218-0.093,0.283c-0.077,0.066-0.158,0.099-0.245,0.099H183.342z
			 M185.264,96.665c-0.239,0-0.464,0.042-0.679,0.125c-0.213,0.084-0.405,0.194-0.576,0.336c-0.171,0.143-0.312,0.312-0.423,0.507
			c-0.112,0.195-0.19,0.406-0.232,0.632h3.836c-0.044-0.226-0.125-0.437-0.241-0.632c-0.115-0.195-0.258-0.364-0.428-0.507
			c-0.17-0.142-0.361-0.252-0.575-0.336C185.73,96.707,185.504,96.665,185.264,96.665z"/>
		<path fill="#180000" d="M188.362,98.578c0-0.353,0.066-0.689,0.202-1.006c0.132-0.314,0.317-0.592,0.552-0.832
			c0.236-0.238,0.51-0.428,0.821-0.564c0.311-0.139,0.644-0.211,1-0.219c0.116,0,0.209,0.033,0.277,0.099
			c0.07,0.064,0.103,0.146,0.103,0.239s-0.033,0.173-0.103,0.24c-0.067,0.064-0.161,0.097-0.277,0.097
			c-0.261,0.007-0.508,0.065-0.738,0.168c-0.231,0.106-0.436,0.246-0.609,0.419c-0.174,0.175-0.311,0.379-0.407,0.615
			c-0.099,0.236-0.147,0.485-0.147,0.744v2.328c0,0.095-0.032,0.176-0.098,0.24c-0.065,0.064-0.145,0.098-0.24,0.098
			c-0.093,0-0.172-0.033-0.239-0.098c-0.064-0.064-0.097-0.146-0.097-0.24V98.578z"/>
		<path fill="#180000" d="M193.612,95.979c0.347,0,0.678,0.072,0.991,0.213c0.318,0.142,0.593,0.332,0.832,0.572
			c0.241,0.238,0.43,0.518,0.572,0.836c0.142,0.32,0.212,0.662,0.212,1.023v2.296c0,0.093-0.033,0.173-0.098,0.237
			c-0.066,0.066-0.145,0.1-0.239,0.1c-0.095,0-0.174-0.033-0.239-0.1c-0.067-0.064-0.1-0.145-0.1-0.237v-0.665
			c-0.237,0.268-0.525,0.498-0.863,0.689c-0.335,0.193-0.699,0.289-1.091,0.289c-0.363,0-0.7-0.064-1.015-0.195
			s-0.593-0.312-0.832-0.543c-0.239-0.231-0.428-0.509-0.566-0.826c-0.138-0.319-0.207-0.668-0.207-1.045
			c0-0.361,0.066-0.701,0.202-1.017c0.132-0.316,0.318-0.591,0.553-0.828c0.236-0.235,0.515-0.425,0.838-0.566
			C192.883,96.071,193.234,95.994,193.612,95.979z M191.643,98.623c0,0.268,0.051,0.519,0.153,0.754
			c0.101,0.237,0.241,0.443,0.418,0.621c0.177,0.178,0.384,0.318,0.619,0.42c0.236,0.102,0.486,0.152,0.755,0.152
			c0.261,0,0.508-0.049,0.739-0.146s0.436-0.235,0.614-0.409c0.178-0.173,0.318-0.379,0.424-0.615
			c0.104-0.234,0.164-0.493,0.177-0.776c0-0.27-0.05-0.521-0.152-0.762c-0.099-0.238-0.239-0.448-0.417-0.625
			c-0.176-0.178-0.385-0.317-0.625-0.418c-0.238-0.102-0.492-0.153-0.76-0.153c-0.27,0-0.519,0.052-0.755,0.153
			c-0.235,0.101-0.442,0.24-0.619,0.418c-0.177,0.177-0.317,0.387-0.418,0.625C191.694,98.102,191.643,98.354,191.643,98.623z"/>
		<path fill="#180000" d="M198.946,100.906c0,0.095-0.033,0.176-0.099,0.24c-0.064,0.064-0.145,0.098-0.239,0.098
			c-0.332-0.007-0.612-0.072-0.836-0.196c-0.227-0.124-0.409-0.274-0.549-0.456c-0.141-0.182-0.244-0.375-0.305-0.577
			c-0.061-0.202-0.091-0.382-0.091-0.544v-4.927c0-0.093,0.032-0.174,0.096-0.239c0.066-0.064,0.145-0.1,0.241-0.1
			c0.094,0,0.172,0.035,0.239,0.1c0.064,0.065,0.098,0.146,0.098,0.239v4.927c0,0.059,0.012,0.146,0.039,0.262
			c0.026,0.116,0.076,0.236,0.156,0.359c0.082,0.122,0.192,0.231,0.337,0.326c0.145,0.094,0.337,0.146,0.575,0.152
			c0.094,0,0.175,0.033,0.239,0.098C198.913,100.732,198.946,100.813,198.946,100.906z"/>
		<path fill="#180000" d="M201.914,95.979c0.347,0,0.679,0.072,0.995,0.213c0.313,0.142,0.591,0.332,0.83,0.572
			c0.24,0.238,0.431,0.518,0.569,0.836c0.143,0.32,0.212,0.662,0.212,1.023c0,0.355-0.069,0.689-0.205,1.006
			c-0.137,0.316-0.324,0.593-0.56,0.833c-0.235,0.237-0.512,0.428-0.83,0.564c-0.322,0.138-0.664,0.206-1.033,0.206
			c-0.364,0-0.701-0.064-1.016-0.195s-0.593-0.312-0.832-0.543s-0.428-0.509-0.564-0.826c-0.139-0.319-0.207-0.668-0.207-1.045
			v-4.067c0-0.095,0.031-0.174,0.097-0.241c0.066-0.064,0.145-0.096,0.239-0.096c0.096,0,0.174,0.031,0.241,0.096
			c0.064,0.067,0.097,0.146,0.097,0.241v2.414c0.24-0.261,0.525-0.487,0.857-0.681C201.138,96.096,201.508,95.994,201.914,95.979z
			 M199.947,98.623c0,0.268,0.05,0.519,0.15,0.754c0.102,0.237,0.243,0.443,0.419,0.621c0.177,0.178,0.384,0.318,0.62,0.42
			s0.487,0.152,0.755,0.152s0.521-0.051,0.76-0.152s0.447-0.242,0.625-0.42c0.177-0.178,0.316-0.384,0.418-0.621
			c0.101-0.235,0.151-0.486,0.151-0.754c0-0.27-0.051-0.521-0.151-0.762c-0.103-0.238-0.241-0.448-0.418-0.625
			c-0.178-0.178-0.386-0.317-0.625-0.418c-0.239-0.102-0.492-0.153-0.76-0.153c-0.262,0-0.509,0.049-0.741,0.146
			c-0.231,0.1-0.433,0.235-0.608,0.408c-0.173,0.175-0.315,0.381-0.423,0.621C200.012,98.078,199.953,98.342,199.947,98.623z"/>
		<path fill="#180000" d="M204.357,100.799c0-0.124,0.044-0.229,0.131-0.316c0.086-0.087,0.192-0.13,0.315-0.13
			c0.122,0,0.228,0.043,0.314,0.13c0.085,0.088,0.129,0.192,0.129,0.316c0,0.122-0.044,0.228-0.129,0.314
			c-0.086,0.089-0.193,0.131-0.314,0.131c-0.124,0-0.229-0.042-0.315-0.131C204.401,101.026,204.357,100.921,204.357,100.799z"/>
		<path fill="#180000" d="M209.694,97.197c-0.183-0.158-0.389-0.287-0.62-0.387c-0.231-0.097-0.481-0.146-0.75-0.146
			c-0.27,0-0.521,0.052-0.756,0.153c-0.236,0.101-0.442,0.24-0.618,0.418c-0.178,0.177-0.317,0.387-0.418,0.625
			c-0.104,0.24-0.154,0.492-0.154,0.762c0,0.268,0.05,0.519,0.154,0.754c0.101,0.237,0.24,0.443,0.418,0.621
			c0.176,0.178,0.381,0.318,0.618,0.42c0.236,0.102,0.487,0.152,0.756,0.152c0.269,0,0.519-0.049,0.75-0.146
			c0.231-0.098,0.438-0.235,0.62-0.409c0.063-0.064,0.143-0.099,0.238-0.099c0.094,0,0.175,0.034,0.239,0.099
			c0.067,0.065,0.096,0.147,0.093,0.246c-0.004,0.098-0.046,0.187-0.125,0.266c-0.066,0.065-0.155,0.139-0.266,0.224
			c-0.112,0.082-0.249,0.16-0.404,0.232c-0.155,0.073-0.33,0.133-0.521,0.18c-0.191,0.047-0.401,0.07-0.624,0.07
			c-0.363,0-0.701-0.064-1.017-0.195c-0.315-0.131-0.59-0.312-0.829-0.543c-0.241-0.231-0.428-0.509-0.566-0.826
			c-0.137-0.319-0.207-0.668-0.207-1.045c0-0.361,0.068-0.701,0.201-1.017c0.135-0.316,0.319-0.591,0.555-0.828
			c0.236-0.235,0.514-0.425,0.836-0.566c0.322-0.141,0.672-0.218,1.049-0.233c0.217,0,0.418,0.028,0.603,0.082
			c0.185,0.055,0.352,0.121,0.5,0.196c0.15,0.076,0.283,0.157,0.398,0.245c0.116,0.086,0.209,0.163,0.282,0.228
			c0.043,0.036,0.083,0.104,0.115,0.202c0.032,0.099,0.009,0.188-0.072,0.266c-0.063,0.066-0.145,0.099-0.239,0.099
			C209.837,97.296,209.758,97.264,209.694,97.197z"/>
		<path fill="#180000" d="M213.422,95.979c0.347,0,0.678,0.072,0.993,0.213c0.316,0.142,0.592,0.332,0.833,0.572
			c0.236,0.238,0.428,0.518,0.568,0.836c0.143,0.32,0.214,0.662,0.214,1.023c0,0.355-0.07,0.689-0.208,1.006
			c-0.136,0.316-0.323,0.593-0.56,0.833c-0.235,0.237-0.512,0.428-0.832,0.564c-0.317,0.138-0.661,0.206-1.032,0.206
			c-0.361,0-0.702-0.064-1.015-0.195c-0.315-0.131-0.593-0.312-0.832-0.543c-0.239-0.231-0.429-0.509-0.566-0.826
			c-0.138-0.319-0.206-0.668-0.206-1.045c0-0.361,0.066-0.701,0.201-1.017c0.134-0.316,0.32-0.591,0.553-0.828
			c0.236-0.235,0.514-0.425,0.838-0.566C212.694,96.071,213.043,95.994,213.422,95.979z M211.454,98.623
			c0,0.268,0.05,0.519,0.152,0.754c0.101,0.237,0.241,0.443,0.418,0.621s0.384,0.318,0.619,0.42
			c0.236,0.102,0.487,0.152,0.755,0.152s0.522-0.051,0.76-0.152c0.24-0.102,0.446-0.242,0.626-0.42
			c0.177-0.178,0.317-0.384,0.418-0.621c0.101-0.235,0.15-0.486,0.15-0.754c0-0.27-0.049-0.521-0.15-0.762
			c-0.101-0.238-0.241-0.448-0.418-0.625c-0.18-0.178-0.387-0.317-0.626-0.418c-0.238-0.102-0.492-0.153-0.76-0.153
			s-0.519,0.052-0.755,0.153c-0.235,0.101-0.442,0.24-0.619,0.418c-0.177,0.177-0.317,0.387-0.418,0.625
			C211.504,98.102,211.454,98.354,211.454,98.623z"/>
		<path fill="#180000" d="M219.475,97.753c-0.014-0.319-0.129-0.583-0.342-0.794c-0.214-0.21-0.47-0.316-0.768-0.316
			c-0.151,0-0.295,0.03-0.429,0.087c-0.134,0.059-0.25,0.138-0.348,0.24c-0.096,0.101-0.175,0.22-0.231,0.354
			c-0.061,0.134-0.09,0.276-0.09,0.43v3.153c0,0.095-0.031,0.176-0.097,0.24c-0.065,0.064-0.145,0.098-0.239,0.098
			c-0.093,0-0.174-0.033-0.239-0.098c-0.064-0.064-0.099-0.146-0.099-0.24v-3.153c0-0.247,0.046-0.479,0.135-0.697
			c0.091-0.216,0.217-0.405,0.375-0.565c0.16-0.159,0.348-0.285,0.564-0.38c0.219-0.095,0.45-0.142,0.696-0.142
			c0.303,0,0.58,0.067,0.826,0.201c0.247,0.135,0.449,0.313,0.607,0.539c0.168-0.226,0.374-0.404,0.621-0.539
			c0.246-0.134,0.521-0.201,0.824-0.201c0.246,0,0.48,0.047,0.697,0.142c0.216,0.095,0.405,0.221,0.564,0.38
			c0.16,0.16,0.287,0.35,0.38,0.565c0.094,0.218,0.14,0.45,0.14,0.697v3.153c0,0.095-0.031,0.176-0.097,0.24
			s-0.146,0.098-0.237,0.098c-0.096,0-0.175-0.033-0.238-0.098c-0.066-0.064-0.1-0.146-0.1-0.24v-3.153
			c0-0.153-0.029-0.296-0.086-0.43c-0.059-0.134-0.139-0.253-0.24-0.354c-0.102-0.103-0.22-0.182-0.353-0.24
			c-0.134-0.057-0.276-0.087-0.431-0.087c-0.151,0-0.295,0.03-0.428,0.087c-0.135,0.059-0.252,0.138-0.348,0.24
			c-0.098,0.101-0.177,0.22-0.232,0.354c-0.061,0.134-0.089,0.276-0.089,0.43v3.153c0,0.095-0.032,0.176-0.097,0.24
			c-0.066,0.064-0.146,0.098-0.24,0.098s-0.174-0.033-0.239-0.098c-0.063-0.064-0.097-0.146-0.097-0.24V97.753z"/>
	</g>
	<path d="M47.31,13.345c4.811,0.363,10.035,2.52,13.359,5.613c1.369,1.272,3.089,3.34,4.245,5.637
		c-0.927-3.14-3.334-6.186-5.135-7.859c-3.324-3.093-8.547-5.25-13.359-5.614c-0.903-0.068-1.769-0.082-2.605-0.056
		c-5.014,0.716-9.106,3.174-12.236,6.076c-3.605,3.344-6.033,7.331-8.117,11.882c0.023,0.688,0.111,0.037,0.335,0
		C28.315,21.714,34.183,12.359,47.31,13.345z M201.108,35c0.295,0,0.591,0.022,0.909,0.068c2.047,0.228,3.956,0.793,5.754,1.75
		c1.795,0.955,3.319,2.187,4.615,3.665c0.895,1.023,1.631,2.156,2.252,3.375c-0.061-0.179-0.105-0.358-0.176-0.535
		c-0.748-1.888-1.7-3.571-2.995-5.051c-1.296-1.478-2.806-2.696-4.601-3.651c-1.798-0.957-3.699-1.435-5.747-1.663
		c-0.317-0.046-0.606,0.043-0.902,0.043h-0.989c-3.41,0-6.457,0.8-9.14,2.619c-2.685,1.823-4.684,4.156-6.002,7.114
		c-0.456,1.048-0.808,2.089-1.059,3.181c-0.251,1.092-0.375,2.215-0.375,3.399s0.124,2.314,0.375,3.408
		c0.251,1.093,0.603,2.154,1.059,3.2c0.077,0.169,0.164,0.331,0.245,0.497c-0.157-0.488-0.298-0.98-0.413-1.479
		c-0.251-1.094-0.375-2.228-0.375-3.411c0-1.184,0.124-2.314,0.375-3.406s0.603-2.148,1.059-3.197
		c1.318-2.958,3.318-5.372,6.002-7.195c2.683-1.82,5.729-2.73,9.14-2.73H201.108z M172.65,78.657
		c0.278,0.594,0.474,1.343,0.585,1.343H162.96c-0.156,1-0.274,1-0.353,1h11.175c-0.125,0-0.359-1.217-0.696-1.786
		C172.957,78.994,172.804,78.855,172.65,78.657z M172.317,85.377c-0.273,0-0.507,0.096-0.696,0.287
		c-0.528,0.506-1.127,0.9-1.804,1.188c-0.676,0.285-1.405,0.428-2.185,0.428c-0.696,0-1.361-0.121-1.993-0.365
		c-0.635-0.242-1.2-0.574-1.695-0.997c-0.182-0.155-0.351-0.347-0.512-0.548c0.304,0.455,0.648,0.855,1.06,1.207
		c0.496,0.422,1.06,0.755,1.695,0.997c0.632,0.243,1.297,0.364,1.993,0.364c0.78,0,1.508-0.143,2.185-0.428
		c0.677-0.286,1.275-0.682,1.803-1.188c0.189-0.19,0.423-0.287,0.696-0.287c0.141,0,0.27,0.027,0.388,0.078
		c-0.042-0.168-0.11-0.322-0.238-0.449C172.824,85.473,172.592,85.377,172.317,85.377z M207.078,48.62
		c-0.12-0.274-0.28-0.517-0.426-0.771c0.099,0.476,0.149,0.96,0.149,1.451c0,1.092-0.205,2.106-0.613,3.039
		c-0.41,0.934-0.957,1.74-1.639,2.424c-0.681,0.682-1.49,1.217-2.421,1.605c-0.933,0.385-1.92,0.579-2.967,0.579
		c-0.955,0-1.886-0.205-2.797-0.615c-0.909-0.409-1.716-0.955-2.421-1.639c-0.525-0.507-0.946-1.106-1.319-1.751
		c0.107,0.533,0.272,1.051,0.505,1.551c0.432,0.933,0.998,1.74,1.704,2.422c0.705,0.684,1.512,1.229,2.421,1.639
		c0.91,0.409,1.842,0.614,2.796,0.614c1.047,0,2.035-0.193,2.968-0.578c0.931-0.388,1.739-0.923,2.421-1.605
		c0.682-0.684,1.228-1.49,1.639-2.424c0.409-0.933,0.613-1.947,0.613-3.039C207.691,50.522,207.486,49.554,207.078,48.62z
		 M169.437,44.832c-0.091-0.087-0.267-0.154-0.357-0.228c0.001,0.065-0.079,0.125-0.079,0.191v16.59
		c0,0.922,0.416,1.752,1.019,2.494c-0.007-0.091-0.019-0.18-0.019-0.271V47.017C170,46.152,170.049,45.423,169.437,44.832z
		 M245.034,48.514c-0.888-0.978-1.935-1.898-3.14-2.491c-1.206-0.59-2.515-1.023-3.92-1.023h-7.71c-0.388,0-0.733,0.01-1.04-0.142
		c-0.029,0.168-0.048,0.37-0.048,0.533c0,0.639,0.193,0.986,0.578,1.327c0.387,0.342,0.853,0.282,1.399,0.282h7.711
		c1.404,0,2.713,0.544,3.919,1.134c1.205,0.593,2.252,1.591,3.141,2.568c0.659,0.73,1.212,1.51,1.658,2.303
		c-0.12-0.483-0.27-0.943-0.47-1.381C246.614,50.531,245.92,49.495,245.034,48.514z M208.752,69.154
		c-0.358,0-0.665,0.127-0.917,0.381c-0.254,0.254-0.381,0.561-0.381,0.919s0.126,0.665,0.381,0.919
		c0.075,0.074,0.164,0.116,0.248,0.169c-0.047-0.136-0.082-0.274-0.082-0.429c0-0.359,0.127-0.666,0.381-0.92
		c0.252-0.253,0.559-0.381,0.917-0.381c0.252,0,0.468,0.086,0.668,0.211c-0.062-0.179-0.153-0.344-0.297-0.488
		C209.417,69.281,209.111,69.154,208.752,69.154z M149.938,85.441c-0.275,0-0.507,0.094-0.696,0.285
		c-0.529,0.506-1.13,0.902-1.806,1.188c-0.676,0.285-1.404,0.428-2.183,0.428c-0.782,0-1.516-0.148-2.201-0.443
		c-0.681-0.293-1.278-0.697-1.792-1.209c0.166,0.225,0.334,0.448,0.534,0.647c0.517,0.519,1.119,0.925,1.805,1.221
		c0.685,0.295,1.419,0.443,2.201,0.443c0.779,0,1.507-0.144,2.183-0.428c0.675-0.286,1.277-0.683,1.806-1.188
		c0.189-0.19,0.42-0.285,0.696-0.285c0.135,0,0.261,0.024,0.376,0.07c-0.038-0.165-0.104-0.318-0.229-0.443
		C150.444,85.535,150.211,85.441,149.938,85.441z M205.666,85.331c-0.263,0.03-0.479,0.142-0.647,0.333
		c-0.507,0.506-1.099,0.9-1.774,1.188c-0.677,0.285-1.404,0.428-2.185,0.428c-0.78,0-1.514-0.146-2.2-0.443
		c-0.629-0.272-1.18-0.648-1.668-1.107c0.114,0.189,0.24,0.375,0.412,0.547c0.517,0.517,1.119,0.923,1.804,1.22
		c0.687,0.296,1.42,0.442,2.2,0.442c0.781,0,1.508-0.143,2.185-0.428c0.675-0.286,1.268-0.682,1.775-1.188
		c0.167-0.19,0.384-0.303,0.647-0.332c0.165-0.021,0.323,0.013,0.478,0.072c-0.053-0.203-0.14-0.383-0.281-0.527
		C206.178,85.367,205.929,85.299,205.666,85.331z M70.477,36.123c0.295-4.602-0.492-8.369-1.981-11.491
		c0.891,2.652,1.32,5.706,1.091,9.269C68.11,57.154,45.638,64.063,49.293,90.518c-5.309-1.289-6.968,3.121-5.75,7.761
		c0.204,0.118,0.392,0.254,0.563,0.405c-0.383-3.89,1.472-7.063,6.078-5.944C46.528,66.285,69,59.377,70.477,36.123z M80.663,78.184
		c-1.231-0.218-1.17-2.504-1.939-3.016c-0.272,1.916,0.429,1.711,0.782,2.469c-1.839-0.02-1.7,0.081-2.474-0.984
		c-0.074,0.222-0.15,0.359-0.216,0.437c0.03,0.022,0.066,0.048,0.103,0.081c-1.537,0.117-1.447,0.621-1.916-0.848
		c-0.333,0.453-0.785-0.373-0.742-0.537c-0.006-0.002-0.01-0.006-0.017-0.008c-0.271,1.31-0.207,1.701,0.907,2.23
		c-0.043,0.163,0.409,0.99,0.742,0.537c0.469,1.469,0.379,0.964,1.916,0.846c-0.037-0.031-0.073-0.058-0.103-0.08
		c0.066-0.078,0.142-0.215,0.216-0.436c0.774,1.064,0.635,0.964,2.474,0.984c-0.353-0.76-1.054-0.553-0.782-2.469
		c0.838,0.557,0.686,3.228,2.298,3.027C81.236,80.134,80.896,79.258,80.663,78.184z M56.934,1.667
		c-30.625,0-55.45,24.848-55.45,55.5c0,7.763,1.598,15.15,4.473,21.858C3.648,72.92,2.375,66.305,2.375,59.389
		c0-30.651,24.824-55.5,55.449-55.5c22.869,0,42.5,13.859,50.978,33.642C100.877,16.573,80.649,1.667,56.934,1.667z M42.698,107.85
		c0.572-0.6,0.905-1.734,0.509-2.807c-0.782,1.6-2.652,3.157-5.077,2.146c1.413-0.162,2.583-0.565,2.877-1.813
		c-0.194,0.167-0.408,0.304-0.636,0.411c-0.625,1.304-2.683,1.34-3.717,0.984c0.861,1.551,3.702,2.156,5.244,0.826
		c-0.294,1.248-1.465,1.652-2.877,1.813c2.425,1.011,4.295-0.546,5.077-2.146c0.396,1.071,0.064,2.207-0.508,2.806
		c2.753-1.22,3.813-6.146,1.896-8.64C45.87,103.93,44.766,106.934,42.698,107.85z M177.577,39.947
		c-0.659-1.457-1.445-2.708-2.559-3.755c-1.115-1.047-2.361-1.877-3.838-2.492c-1.479-0.614-2.987-0.922-4.58-0.922
		c-2.91,0-5.444,0.887-7.626,2.663c-1.092-0.91-2.28-1.581-3.574-2.015c-1.297-0.43-2.624-0.648-3.989-0.648
		c-1.682,0-3.261,0.319-4.739,0.956c-1.478,0.637-2.762,1.49-3.853,2.561c-1.09,1.07-2.091,2.322-2.727,3.754
		c-0.637,1.434-1.092,2.948-1.092,4.54v16.796c0,0.592,0.191,1.162,0.442,1.707c0.189,0.412,0.363,0.773,0.642,1.107
		c-0.009-0.195-0.084-0.393-0.084-0.592V46.811c0-1.592,0.4-3.106,1.037-4.54c0.635-1.432,1.51-2.685,2.6-3.754
		c1.091-1.07,2.412-1.923,3.889-2.561S150.602,35,152.283,35c1.366,0,2.702,0.218,4,0.648c1.294,0.434,2.488,1.105,3.58,2.014
		c2.183-1.775,4.722-2.663,7.632-2.663c1.592,0,3.11,0.309,4.588,0.922c1.477,0.615,2.737,1.445,3.852,2.492
		c0.831,0.78,1.494,1.675,2.051,2.683C177.88,40.708,177.747,40.324,177.577,39.947z M154.223,44.797
		c-0.023-0.021-0.125-0.035-0.148-0.055c0,0.018-0.075,0.034-0.075,0.052v16.931c0,0.929,0.392,1.737,1.026,2.438
		C155.021,64.09,155,64.022,155,63.947V47.017C155,46.106,154.859,45.367,154.223,44.797z M220.924,47.983
		c-0.221-0.824-0.342-1.684-0.342-2.59c0-1.366,0.263-2.67,0.785-3.946c0.521-1.273,1.237-2.36,2.148-3.316
		c0.907-0.954,1.978-1.709,3.205-2.278c1.229-0.567,2.569-0.854,4.025-0.854h12.142c1.229,0,2.253,0.33,3.07,1.262
		c0.121,0.138,0.214,0.293,0.316,0.426c-0.056-0.928-0.448-1.656-1.206-2.522c-0.818-0.932-1.842-1.166-3.07-1.166h-12.141
		c-1.457,0-2.799,0.175-4.026,0.742c-1.228,0.569-2.298,1.244-3.206,2.198c-0.91,0.956-1.627,2.027-2.148,3.3
		c-0.521,1.276-0.785,2.572-0.785,3.938c0,1.365,0.25,2.628,0.751,3.812C220.585,47.329,220.748,47.66,220.924,47.983z M305.826,45
		h-8.912c-0.65,1-1.246,1-1.78,2h12.417C307.037,46,306.461,46,305.826,45z M365.784,47.848c0.099,0.477,0.149,0.96,0.149,1.452
		c0,1.092-0.204,2.106-0.613,3.039c-0.41,0.934-0.954,1.74-1.639,2.424c-0.682,0.682-1.488,1.217-2.419,1.605
		c-0.933,0.385-1.922,0.579-2.967,0.579c-0.957,0-1.888-0.205-2.798-0.615c-0.911-0.409-1.717-0.955-2.422-1.639
		c-0.522-0.506-0.945-1.105-1.318-1.75c0.107,0.532,0.271,1.049,0.504,1.549c0.431,0.933,1,1.74,1.705,2.422
		c0.704,0.684,1.511,1.229,2.421,1.639s1.842,0.614,2.799,0.614c1.045,0,2.033-0.193,2.967-0.578
		c0.93-0.388,1.736-0.923,2.419-1.605c0.684-0.684,1.228-1.49,1.639-2.424c0.409-0.933,0.612-1.947,0.612-3.039
		c0-1-0.203-1.968-0.612-2.902C366.091,48.346,365.93,48.103,365.784,47.848z M280.399,54.9c-1.001-0.911-2.081-1.355-3.24-1.333
		c-1.161,0.024-2.217,0.443-3.174,1.263c-0.636,0.638-1.373,1.116-2.215,1.434c-0.842,0.319-1.855,0.477-3.033,0.477
		c-1.094,0-2.106-0.204-3.036-0.613c-0.933-0.409-1.74-0.979-2.422-1.708c-0.244-0.26-0.433-0.539-0.602-0.825
		c0.043,0.187,0.088,0.373,0.163,0.555c0.388,0.935,0.644,1.764,1.329,2.492c0.681,0.729,1.489,1.298,2.421,1.708
		c0.93,0.409,1.943,0.613,3.035,0.613c1.179,0,2.192-0.157,3.034-0.477c0.842-0.318,1.579-0.795,2.216-1.434
		c0.957-0.82,2.012-1.239,3.174-1.263c1.159-0.022,2.239,0.421,3.239,1.332c0.178,0.16,0.324,0.336,0.468,0.514
		c-0.05-0.459-0.15-0.908-0.335-1.338C281.194,55.776,280.853,55.308,280.399,54.9z M308.604,56.401
		c-0.706-0.501-1.535-0.774-2.489-0.819c-0.5,0-0.943,0.068-1.329,0.205c-0.387,0.136-0.773,0.295-1.16,0.478
		c-0.388,0.183-0.83,0.341-1.332,0.477c-0.497,0.137-1.113,0.174-1.839,0.174c-1.694,0-3.151-0.915-4.378-1.915h-0.942
		c1.504,2,3.572,4.029,6.211,4.029c0.726,0,1.34,0.031,1.837-0.105c0.504-0.137,0.945-0.275,1.333-0.457
		c0.388-0.184,0.773-0.332,1.161-0.468c0.386-0.137,0.828-0.2,1.329-0.2c0.953,0.045,1.782,0.32,2.489,0.821
		c0.407,0.289,0.745,0.625,1.03,0.997c-0.047-0.465-0.157-0.912-0.352-1.34C309.832,57.527,309.31,56.902,308.604,56.401z
		 M422.442,47.692c0.114,0.521,0.176,1.057,0.176,1.608c0,1.048-0.206,2.037-0.617,2.971c-0.408,0.933-0.967,1.74-1.671,2.422
		c-0.703,0.684-1.523,1.229-2.456,1.639c-0.93,0.41-1.899,0.615-2.898,0.615c-1.043,0-2.021-0.205-2.93-0.615
		c-0.913-0.409-1.719-0.955-2.424-1.639c-0.478-0.461-0.879-0.984-1.22-1.559c0.103,0.465,0.247,0.918,0.439,1.358
		c0.411,0.933,0.963,1.74,1.67,2.422c0.706,0.684,1.511,1.229,2.425,1.639c0.908,0.409,1.887,0.614,2.93,0.614
		c0.998,0,1.969-0.205,2.898-0.614c0.932-0.409,1.752-0.955,2.456-1.639c0.703-0.682,1.263-1.49,1.67-2.422
		c0.411-0.934,0.618-1.923,0.618-2.971c0-1.045-0.207-2.037-0.618-2.969C422.76,48.251,422.605,47.968,422.442,47.692z
		 M430.288,42.848c-0.794-1.888-1.988-3.653-3.577-5.292c-1.366-1.272-2.842-2.287-4.434-3.037
		c-1.596-0.751-3.231-1.251-4.912-1.502c-1.683-0.25-3.545-0.25-5.253,0c-1.403,0.207-3.112,0.617-4.112,1.208v2.619
		c2-0.819,3.353-1.353,5.058-1.604c1.708-0.25,3.555-0.25,5.238,0c1.68,0.251,3.296,0.75,4.89,1.502
		c1.594,0.75,3.06,1.765,4.426,3.037c1.366,1.408,2.416,2.915,3.195,4.508C430.659,43.792,430.484,43.312,430.288,42.848z
		 M391.104,57.151c-0.891,0-1.704-0.308-2.291-0.919c0.031,0.85,0.341,1.581,0.904,2.186c0.589,0.638,1.365,0.955,2.275,0.955
		c1.183,0,2.22,0.422,3.106,1.24c0.172,0.16,0.315,0.334,0.455,0.509c-0.125-1.054-0.56-1.978-1.346-2.704
		C393.322,57.599,392.284,57.151,391.104,57.151z M190.402,82.268c0-0.783-0.147-1.521-0.443-2.221
		c-0.295-0.695-0.701-1.303-1.219-1.822c-0.006-0.006-0.015-0.011-0.022-0.018c0.27,0.364,0.511,0.75,0.693,1.182
		c0.296,0.698,0.443,1.438,0.443,2.221c-0.042,0.82-0.215,1.577-0.521,2.264c-0.305,0.686-0.717,1.282-1.235,1.791
		c-0.518,0.506-1.112,0.9-1.788,1.188c-0.675,0.285-1.393,0.428-2.152,0.428c-0.781,0-1.515-0.146-2.199-0.443
		c-0.683-0.294-1.278-0.697-1.793-1.209c0.167,0.225,0.334,0.448,0.534,0.648c0.519,0.517,1.118,0.923,1.807,1.22
		c0.684,0.296,1.418,0.442,2.199,0.442c0.76,0,1.477-0.143,2.152-0.428c0.675-0.286,1.27-0.682,1.788-1.188
		c0.518-0.508,0.93-1.104,1.235-1.791C190.187,83.846,190.36,83.089,190.402,82.268z M238.852,55.314
		c-0.051,1.022-0.656,1.686-1.834,1.686h-12.553c-1.181,0-2.181,0.508-2.999,1.441c-0.819,0.934-1.229,1.957-1.229,3.093
		c0,1.04,0.33,2.055,0.949,2.837c-0.028-0.214-0.059-0.416-0.059-0.638c0-1.136,0.409-2.253,1.229-3.187
		c0.818-0.934,1.818-1.547,3-1.547h12.552c1.231,0,1.843-0.766,1.843-1.859C239.75,56.285,239.447,55.652,238.852,55.314z
		 M203.468,75.034c0.018-0.09,0.03-0.124,0.03-0.206c0-0.275-0.101-0.432-0.3-0.622c-0.202-0.188-0.47-0.206-0.809-0.206H196v1
		h6.938C203.141,75,203.315,75.049,203.468,75.034z M222.619,73.971c-0.232-0.105-0.465-0.105-0.698,0
		c-0.232,0.106-0.421,0.275-0.567,0.508l-4.121,10.806l0.392,1.067l4.275-11.215c0.147-0.232,0.336-0.4,0.568-0.508
		c0.232-0.104,0.463-0.104,0.693,0c-0.01-0.04-0.006-0.079-0.021-0.119C223.046,74.256,222.869,74.077,222.619,73.971z
		 M261.537,26.982v-0.145c-0.058-0.077-0.099-0.149-0.149-0.224C261.44,26.733,261.491,26.856,261.537,26.982z M276.923,35.557
		c0.103,0.115,0.18,0.27,0.27,0.394c-0.144-0.912-0.526-1.784-1.16-2.49c-0.817-0.909-1.887-1.461-3.204-1.461H263v2h10.719
		C275.036,34,276.104,34.648,276.923,35.557z M235.533,85.377c-0.275,0-0.505,0.096-0.696,0.287c-0.526,0.506-1.127,0.9-1.804,1.188
		c-0.677,0.285-1.405,0.428-2.183,0.428c-0.698,0-1.363-0.121-1.997-0.365c-0.632-0.242-1.197-0.574-1.693-0.997
		c-0.179-0.151-0.342-0.336-0.499-0.53c0.299,0.447,0.639,0.842,1.046,1.189c0.498,0.422,1.063,0.755,1.694,0.997
		c0.634,0.243,1.298,0.364,1.997,0.364c0.777,0,1.506-0.143,2.182-0.428c0.678-0.286,1.277-0.682,1.805-1.188
		c0.191-0.19,0.42-0.287,0.695-0.287c0.142,0,0.271,0.027,0.389,0.078c-0.041-0.168-0.109-0.322-0.236-0.449
		C236.04,85.473,235.809,85.377,235.533,85.377z M235.867,78.657c0.278,0.595,0.473,1.343,0.584,1.343h-10.274
		c-0.157,1-0.274,1-0.352,1h11.173c-0.125,0-0.356-1.217-0.695-1.786C236.172,78.994,236.021,78.855,235.867,78.657z
		 M370.677,38.273c-1.296-1.478-2.844-2.697-4.64-3.652c-1.796-0.957-3.718-1.436-5.764-1.664c-0.319-0.046-0.627,0.043-0.92,0.043
		h-0.989c-3.412,0-6.456,0.8-9.141,2.619c-2.685,1.823-4.686,4.156-6.004,7.114c-0.456,1.048-0.808,2.089-1.056,3.181
		c-0.252,1.092-0.377,2.215-0.377,3.399s0.125,2.314,0.377,3.408c0.248,1.093,0.6,2.159,1.056,3.205
		c0.077,0.171,0.166,0.336,0.248,0.504c-0.158-0.492-0.3-0.988-0.414-1.491c-0.251-1.094-0.376-2.228-0.376-3.411
		c0-1.184,0.125-2.314,0.376-3.406c0.248-1.092,0.601-2.148,1.057-3.197c1.317-2.958,3.319-5.372,6.003-7.195
		c2.685-1.82,5.729-2.73,9.142-2.73h0.988c0.294,0,0.601,0.022,0.92,0.068c2.046,0.228,3.968,0.793,5.764,1.75
		c1.797,0.955,3.343,2.187,4.641,3.665c0.918,1.049,1.695,2.213,2.342,3.468c-0.072-0.21-0.13-0.42-0.212-0.628
		C372.945,41.434,371.972,39.753,370.677,38.273z M194,82.268V70.542c0-0.274,0.143-0.507,0.332-0.697
		c0.191-0.19,0.37-0.284,0.646-0.284c0.084,0,0.226,0.012,0.318,0.03c-0.046-0.149-0.09-0.288-0.208-0.405
		c-0.188-0.189-0.412-0.283-0.684-0.283c-0.276,0-0.718,0.094-0.908,0.283c-0.189,0.191-0.495,0.424-0.495,0.697v11.727
		c0,1.055,0.418,2.046,0.817,2.977c0.401,0.93,1.053,1.736,1.739,2.424c0.092,0.093,0.254,0.161,0.35,0.248
		c-0.485-0.593-1.016-1.261-1.34-2.014C194.167,84.314,194,83.322,194,82.268z M190,87.02c0,0.418,0,0.805-1,1.16v0.111
		c0,0.277,0.523,0.51,0.713,0.699c0.132,0.129,0.238,0.212,0.442,0.253c-0.029-0.094-0.155-0.187-0.155-0.294V87.02z
		 M212.814,78.906c-0.38-1.033-0.653-1.778-0.823-2.233c-0.17-0.454-0.253-0.69-0.253-0.712c-0.106-0.254-0.106-0.518,0-0.793
		c0.105-0.273,0.273-0.465,0.507-0.57c0.252-0.105,0.49-0.088,0.711,0.049c0.034,0.02,0.06,0.045,0.092,0.067l-0.086-0.235
		c-0.146-0.19-0.331-0.354-0.553-0.491c-0.222-0.137-0.459-0.154-0.711-0.048c-0.234,0.105-0.401,0.297-0.507,0.57
		c-0.106,0.275-0.106,0.539,0,0.793c0,0.021,0.083,0.258,0.253,0.711c0.169,0.455,0.443,1.2,0.823,2.234
		c0.38,1.037,0.875,2.387,1.487,4.057c0.613,1.669,1.362,3.717,2.247,6.146c0.065,0.17,0.186,0.344,0.366,0.523
		c0.05,0.05,0.114,0.076,0.172,0.111c-0.88-2.418-1.627-4.459-2.238-6.122C213.689,81.293,213.194,79.943,212.814,78.906z
		 M208.752,73.844c-0.276,0-0.894,0.096-1.083,0.286C207.48,74.32,207,74.553,207,74.826v13.436c0,0.274,0.48,0.506,0.669,0.696
		c0.144,0.146,0.254,0.216,0.472,0.251C208.123,89.117,208,89.024,208,88.92V75.484c0-0.273,0.254-0.506,0.443-0.695
		c0.19-0.191,0.474-0.286,0.75-0.286c0.044,0,0.143,0.019,0.188,0.022c-0.001-0.146,0.004-0.279-0.112-0.396
		C209.08,73.939,209.027,73.844,208.752,73.844z M160.974,74.613c-0.04-0.181-0.114-0.347-0.258-0.483
		c-0.201-0.19-0.47-0.286-0.808-0.286c-1.034,0.021-2.005,0.233-2.912,0.635c-0.91,0.401-1.704,0.95-2.391,1.647
		c-0.687,0.696-1.425,1.505-1.817,2.424S152,80.445,152,81.481v6.78c0,0.274,0.297,0.506,0.489,0.696
		c0.174,0.175,0.326,0.259,0.575,0.273c0.004-0.098-0.063-0.2-0.063-0.312v-6.779c0-1.036,0.172-2.014,0.563-2.932
		c0.392-0.92,0.826-1.728,1.512-2.424c0.687-0.697,1.521-1.246,2.43-1.648c0.907-0.4,1.897-0.612,2.932-0.634
		C160.635,74.503,160.822,74.547,160.974,74.613z M179.275,76.896c0.687-0.688,1.499-1.236,2.439-1.648
		c0.938-0.412,1.957-0.641,3.054-0.683c1.014,0,1.98,0.206,2.9,0.618c0.792,0.355,1.49,0.841,2.12,1.41
		c-0.113-0.137-0.226-0.275-0.355-0.404c-0.698-0.697-1.452-1.253-2.369-1.665c-0.919-0.411-1.857-0.618-2.872-0.618
		c-1.097,0.043-2.103,0.271-3.041,0.683c-0.94,0.412-1.745,0.962-2.432,1.648c-0.686,0.685-1.217,1.487-1.607,2.407
		c-0.391,0.92-0.585,1.906-0.585,2.965c0,1.097,0.201,2.11,0.601,3.039c0.315,0.73,0.75,1.359,1.247,1.933
		c-0.268-0.396-0.502-0.818-0.699-1.273c-0.401-0.929-0.602-1.942-0.602-3.04c0-1.058,0.194-2.045,0.586-2.965
		C178.051,78.384,178.59,77.581,179.275,76.896z M170.561,74.501c-0.898-0.401-1.852-0.599-2.865-0.599
		c-1.098,0.043-2.116,0.273-3.056,0.684c-0.938,0.412-1.752,0.963-2.437,1.65c-0.687,0.686-1.225,1.488-1.615,2.408
		c-0.391,0.92-0.584,1.906-0.584,2.964c0,1.097,0.199,2.111,0.601,3.04c0.315,0.73,0.749,1.359,1.246,1.934
		c-0.268-0.395-0.501-0.818-0.698-1.274c-0.401-0.929-0.601-1.942-0.601-3.04c0-1.059,0.193-2.045,0.584-2.965
		c0.39-0.919,0.929-1.722,1.615-2.406c0.684-0.688,1.499-1.236,2.436-1.648c0.94-0.41,1.958-0.639,3.056-0.682
		c1.012,0,1.966,0.202,2.864,0.604c0.897,0.402,1.693,0.941,2.392,1.619c0.174,0.169,0.313,0.368,0.469,0.553
		c-0.298-0.443-0.63-0.857-1.016-1.233C172.254,75.432,171.458,74.902,170.561,74.501z M140.372,76.959
		c0.684-0.688,1.497-1.235,2.437-1.649c0.939-0.411,1.956-0.638,3.054-0.681c0.635,0,1.22,0.079,1.758,0.237
		c0.538,0.16,1.023,0.35,1.456,0.571c0.433,0.223,0.816,0.459,1.156,0.713c0.203,0.152,0.375,0.29,0.533,0.42
		c-0.078-0.184-0.162-0.333-0.257-0.414c-0.213-0.19-0.486-0.41-0.823-0.664c-0.339-0.254-0.723-0.491-1.156-0.714
		c-0.433-0.222-0.918-0.411-1.456-0.571c-0.538-0.158-1.124-0.236-1.758-0.236c-1.098,0.043-2.115,0.27-3.054,0.68
		c-0.94,0.414-1.753,0.963-2.437,1.649c-0.688,0.688-1.226,1.489-1.614,2.408c-0.392,0.918-0.586,1.907-0.586,2.962
		c0,1.1,0.201,2.114,0.601,3.042c0.316,0.729,0.75,1.358,1.247,1.932c-0.268-0.395-0.502-0.817-0.699-1.272
		c-0.4-0.928-0.6-1.943-0.6-3.043c0-1.055,0.194-2.043,0.585-2.961C139.146,78.448,139.684,77.646,140.372,76.959z M383.423,22.401
		c-1.229,0.044-2.214,0.477-3.027,1.296c-0.82,0.82-1.396,1.798-1.396,2.937v27.242c0,1.593,0.289,3.118,0.902,4.572
		c0.158,0.378,0.391,0.742,0.585,1.095c-0.351-1.11-0.487-2.258-0.487-3.444V28.855c0-1.139,0.533-2.117,1.354-2.937
		c0.813-0.819,1.813-1.251,3.042-1.296c1.229,0,2.221,0.432,3.059,1.296c0.115,0.119,0.196,0.252,0.3,0.379
		c-0.129-1.007-0.564-1.879-1.266-2.601C385.65,22.833,384.651,22.401,383.423,22.401z M71.455,23.072
		c-2.496-7.246-8.008-12.263-15.636-14.894c-2.912-0.379-5.992-0.334-9.187,0.218C58.491,9.302,67.415,14.313,71.455,23.072z
		 M405.886,23.562c-0.436-0.412-0.864-0.741-1.408-0.991c-0.543-0.25-1.085-0.353-1.676-0.307c-0.542-0.046-1.063,0.046-1.584,0.271
		c-0.523,0.229-0.983,0.537-1.39,0.923c-0.414,0.387-0.447,0.843-0.721,1.365c-0.273,0.524-0.107,1.059-0.107,1.604V49.3
		c0,2.232,0.154,4.347,1.063,6.35c0.148,0.326,0.355,0.634,0.515,0.946c-0.498-1.621-0.577-3.31-0.577-5.074V28.649
		c0-0.545-0.219-1.081,0.055-1.604c0.271-0.521,0.295-0.978,0.71-1.365c0.405-0.387,0.846-0.693,1.368-0.923
		c0.522-0.226,1.034-0.317,1.576-0.272c0.591-0.045,1.135,0.058,1.679,0.307c0.544,0.25,0.984,0.579,1.419,0.991
		c0.027,0.026,0.045,0.055,0.07,0.082c0.004-0.282-0.018-0.561-0.126-0.836C406.52,24.459,406.313,23.97,405.886,23.562z
		 M233.776,74.51c-0.896-0.401-1.851-0.604-2.864-0.604c-1.098,0.043-2.117,0.271-3.054,0.683c-0.94,0.412-1.754,0.962-2.438,1.648
		c-0.687,0.685-1.225,1.487-1.613,2.407c-0.394,0.92-0.586,1.906-0.586,2.965c0,1.097,0.199,2.11,0.6,3.039
		c0.314,0.729,0.748,1.357,1.245,1.931c-0.267-0.394-0.501-0.816-0.697-1.271c-0.401-0.929-0.601-1.942-0.601-3.04
		c0-1.058,0.193-2.045,0.586-2.965c0.389-0.919,0.928-1.722,1.613-2.406c0.686-0.688,1.498-1.236,2.439-1.648
		c0.936-0.412,1.956-0.641,3.053-0.683c1.015,0,1.969,0.202,2.865,0.603c0.895,0.402,1.695,0.939,2.392,1.617
		c0.178,0.174,0.321,0.377,0.48,0.566c-0.302-0.439-0.64-0.848-1.028-1.226C235.472,75.449,234.672,74.912,233.776,74.51z
		 M256.566,22.195c-1.228,0-2.27,0.409-3.201,1.229c-0.934,0.819-1.365,1.844-1.365,3.072v22.461c0,2.552,0.445,4.861,1.379,6.931
		c0.086,0.192,0.312,0.368,0.404,0.554C253.227,54.82,253,53.066,253,51.18V28.718c0-1.228,0.391-2.252,1.324-3.071
		c0.932-0.82,2.054-1.229,3.281-1.229c1.273,0,2.421,0.443,3.284,1.331c0.079,0.082,0.111,0.167,0.175,0.252
		c-0.452-0.955-0.493-1.781-1.167-2.474C259.034,22.639,257.84,22.195,256.566,22.195z M312.014,37.795
		c-1.525-1.524-3.285-2.741-5.285-3.652c-2.003-0.911-4.092-1.366-6.274-1.366c-2.229,0-4.343,0.455-6.344,1.366
		c-2.003,0.911-3.753,2.128-5.256,3.652c-1.498,1.525-2.692,3.289-3.579,5.292c-0.887,2.003-1.329,4.074-1.329,6.213
		c0,2.186,0.442,4.301,1.329,6.35c0.087,0.201,0.19,0.388,0.284,0.583c-0.48-1.534-0.724-3.103-0.724-4.711
		c0-2.139,0.442-4.209,1.328-6.213c0.889-2.003,2.083-3.767,3.58-5.292c1.503-1.524,3.253-2.741,5.257-3.652
		c2-0.911,4.114-1.366,6.344-1.366c2.182,0,4.271,0.455,6.274,1.366c2,0.911,3.76,2.128,5.284,3.652
		c1.41,1.411,2.544,3.012,3.428,4.811c-0.188-0.596-0.403-1.186-0.668-1.763C314.753,41.085,313.537,39.321,312.014,37.795z
		 M336.534,32.846c-2.228,0.093-4.328,0.559-6.309,1.399c-1.976,0.843-3.706,1.981-5.183,3.414
		c-1.479,1.434-2.711,3.119-3.594,5.053C320.559,44.646,320,46.706,320,48.89v12.63c0,0.843,0,1.577,1,2.206V51.112
		c0-2.184,0.504-4.244,1.395-6.178c0.883-1.934,2.145-3.618,3.623-5.052c1.478-1.433,3.165-2.571,5.141-3.414
		c1.98-0.84,4.061-1.307,6.288-1.4c1.274,0,2.316,0.434,3.16,1.298c0.167,0.172,0.303,0.357,0.44,0.544
		c-0.151-1.064-0.587-1.992-1.339-2.766C338.864,33.279,337.809,32.846,336.534,32.846z M321.168,64.607
		c-0.12-0.268-0.272-0.546-0.492-0.839C320.79,64.074,320.935,64.354,321.168,64.607z M36.731,43.638
		c0.567-0.25,1.039-0.594,1.387-1.058c-0.771,0.109-1.532,0.121-2.142-0.017C36.033,43.067,36.332,43.401,36.731,43.638z
		 M38.602,40.063c-0.171-0.09-0.317-0.192-0.426-0.308c0.022,0.142,0.061,0.27,0.103,0.393
		C38.387,40.12,38.496,40.093,38.602,40.063z M40.204,46.689c0.198,1.212-1.824,1.915-1.353,2.311
		c4.074,0.238,4.001-3.795,6.765-5.118c0.227-0.108,0.494-0.167,0.773-0.224c0.022-0.868,0.176-1.77,0.536-2.655
		c-0.769,0.417-1.602,0.373-2.199,0.657c-2.764,1.323-2.69,5.356-6.765,5.119c-0.472-0.396,1.55-1.099,1.353-2.311
		c-0.029,0.007-0.073,0.018-0.104,0.026c-0.632,1.109-1.871,1.631-3.403,1.867C36.693,47.688,39.261,46.912,40.204,46.689z
		 M48.28,48.429c-0.332-0.245-0.623-0.587-0.883-0.974c0.267,1.392,0.916,2.563,1.773,3.195c0.616,0.454,1.595,0.63,2.322,1.009
		c0.092-0.447,0.108-0.872,0.003-1.253C51.148,49.167,49.257,49.148,48.28,48.429z M73.309,57.671
		c-5.484-2.037-9.782,8.823-7.607,13.37c0.122,0.025,0.233,0.025,0.35,0.039c-0.428-5.106,3.416-12.943,8.147-11.188
		c1.75-1.046,1.047-4.861,3.892-4.455c0.495,0.07,0.844,0.308,1.113,0.644c-0.379-1.396-0.708-2.682-2.003-2.866
		C74.356,52.81,75.059,56.625,73.309,57.671z M79.444,73.097c-0.061-0.095-0.146-0.178-0.217-0.267
		c0.381,1.874,0.488,4.16,1.376,5.063C80.279,76.234,80.148,74.201,79.444,73.097z M65.702,78.306
		c-1.249,1.79-3.711,7.979-1.471,9.996c-0.164-2.675,1.431-6.442,2.361-7.774c1.766-2.534,4.31-4.685,6.672-5.674
		c-0.127-0.508,0.084-1.246,0.383-2.656C70.97,72.829,67.791,75.308,65.702,78.306z M84.856,56.758
		c0.461,0.043,0.833-0.001,1.124-0.125c-0.54,0.089-1.216,0.045-1.844,0.048c0.449,1.104,1.54,1.579,2.708,1.979
		c-0.184,0.124-0.388,0.198-0.599,0.25c0.651-0.016,1.224-0.109,1.489-0.501C86.386,58.236,85.292,57.819,84.856,56.758z
		 M74.497,48.265c0.471,0.403,0.912,0.598,1.338,0.667c1.31-4.412,2.705-7.896,2.935-12.972c0.208-4.642-0.665-8.963-2.383-12.762
		c1.122,3.232,1.662,6.781,1.493,10.54C77.623,39.397,75.917,43.067,74.497,48.265z M37.258,103.244
		c-0.032-0.018-0.065-0.035-0.096-0.054c-0.048,0.638,0.046,1.136,0.248,1.528c0.856-0.071,1.712-0.394,2.075-1.16
		c-0.051,0.004-0.096,0.002-0.146,0.005C38.813,104.12,38.06,104.197,37.258,103.244z M82.997,49.166
		c-0.308-0.074-0.601-0.083-0.886-0.064c-0.066,1.652-0.108,3.382,0.89,4.254C82.892,51.981,83.126,50.369,82.997,49.166z
		 M86.346,56.109c0.055,0.011,0.114,0.018,0.17,0.027c0.008-0.016,0.022-0.025,0.029-0.041
		C86.473,56.104,86.415,56.102,86.346,56.109z M85.032,58.915c-0.907-0.161-1.854-0.601-2.586-0.915
		c0.565,1.266,1.739,1.934,3.043,2.477c-0.408,0.107-0.792,0.152-1.163,0.17c1.141,0.466,2.475,0.865,3.407,0.234
		C86.571,60.484,85.484,60.01,85.032,58.915z M75.467,91.638c-0.443,1.674-2.263,3.308-3.678,4.491
		c-2.701,2.269-6.473,3.624-10.993,2.643c-2.414-0.523-5.902-2.945-7.25-4.854c0.137,0.622,0.31,1.176,0.529,1.631
		c0.943,1.959,4.939,4.866,7.611,5.444c4.52,0.981,8.292-0.374,10.992-2.642c1.777-1.486,4.198-3.682,3.723-5.775
		C76.305,92.15,75.954,91.857,75.467,91.638z M83.547,60.617c-1.246-0.158-2.279-0.82-3.134-1.791
		c-0.099-0.112-0.19-0.231-0.273-0.355c0.252,0.922,0.544,1.875,1.164,2.578c1.264,1.435,2.907,2.225,5.076,1.649
		C85.219,62.216,84.165,61.631,83.547,60.617z"/>
</g>
</svg>
