<?xml version="1.0" encoding="utf-8"?>
<!-- Generator: Adobe Illustrator 16.0.3, SVG Export Plug-In . SVG Version: 6.00 Build 0)  -->
<!DOCTYPE svg PUBLIC "-//W3C//DTD SVG 1.1//EN" "http://www.w3.org/Graphics/SVG/1.1/DTD/svg11.dtd">
<svg version="1.1" id="Warstwa_1" xmlns="http://www.w3.org/2000/svg" xmlns:xlink="http://www.w3.org/1999/xlink" x="0px" y="0px"
	 width="24px" height="170px" viewBox="0 0 24 170" enable-background="new 0 0 24 170" xml:space="preserve">
<path fill="#D6D6D6" d="M15.113,20.993C14.952,20.804,15,20.563,15,20.298v-1.352c0-0.112,0.033-0.24,0.13-0.38
	c0.479-0.701,0.776-1.479,1.056-2.32C16.73,15.987,17,15.43,17,14.799V13.2c0-0.385,0-0.759,0-1.05v-2.127
	c0-0.22-0.076-1.529-0.992-2.609C15.217,6.475,13.836,6,12.091,6C10.345,6,8.83,6.475,8.035,7.412C7.121,8.492,7,9.802,7,10.022
	v2.127c0,0.292,0,0.665,0,1.05v1.6c0,0.487,0.248,0.941,0.612,1.244C7.966,17.494,9,18.587,9,18.937v1.325
	c0,0.379-0.243,0.726-0.561,0.914L1,23.648V28h22v-4.352L15.113,20.993z"/>
<g>
	<g>
		<path fill="#D6D6D6" d="M21.385,47.688h-1.656V45.48c0-4.262-3.467-7.729-7.729-7.729c-4.262,0-7.729,3.467-7.729,7.729v2.208
			H2.615c-0.306,0-0.553,0.247-0.553,0.552v13.801c0,1.219,0.99,2.208,2.208,2.208h15.458c1.217,0,2.209-0.989,2.209-2.208V48.24
			C21.938,47.935,21.689,47.688,21.385,47.688z M13.652,59.22c0.018,0.155-0.033,0.313-0.137,0.429
			c-0.105,0.116-0.256,0.184-0.412,0.184h-2.208c-0.157,0-0.307-0.067-0.412-0.184c-0.104-0.118-0.154-0.274-0.137-0.429
			l0.349-3.132c-0.565-0.411-0.904-1.062-0.904-1.776c0-1.218,0.99-2.208,2.209-2.208s2.208,0.99,2.208,2.208
			c0,0.714-0.339,1.365-0.903,1.776L13.652,59.22z M16.417,47.688H7.583V45.48c0-2.436,1.982-4.417,4.417-4.417
			c2.436,0,4.417,1.981,4.417,4.417V47.688z"/>
	</g>
</g>
<g>
	<path fill="#D6D6D6" d="M12.029,86.54h0.005c0.174,0,0.346-0.051,0.485-0.144l0.037-0.023c0.008-0.005,0.017-0.01,0.025-0.016
		l0.439-0.364l10.494-8.661c-0.021-0.03-0.058-0.051-0.099-0.051H0.581c-0.028,0-0.055,0.011-0.076,0.027l10.98,9.051
		C11.624,86.475,11.821,86.54,12.029,86.54z M0.458,78.509v12.839l7.867-6.354L0.458,78.509z M15.684,85.035l7.857,6.314V78.552
		L15.684,85.035z M13.186,87.096c-0.313,0.258-0.723,0.399-1.152,0.399c-0.432,0-0.841-0.142-1.154-0.396l-1.801-1.485l-8.619,6.961
		v0.022c0,0.064,0.057,0.121,0.124,0.121H23.42c0.064,0,0.121-0.057,0.121-0.123v-0.021l-8.611-6.919L13.186,87.096z"/>
</g>
<path fill="#D6D6D6" d="M17.943,109.462C16.355,107.875,14.246,107,12,107c-2.245,0-4.355,0.875-5.943,2.462
	c-2.938,2.938-3.303,8.464-0.791,11.813L12,131l6.725-9.711C21.247,117.926,20.882,112.398,17.943,109.462z M12.078,118.396
	c-1.691,0-3.068-1.377-3.068-3.068s1.376-3.068,3.068-3.068c1.691,0,3.068,1.377,3.068,3.068S13.77,118.396,12.078,118.396z"/>
<g>
	<path fill="#D6D6D6" d="M17.584,141.25H6.417c-0.93,0-1.692,0.762-1.692,1.691v5.355v10.584v5.355c0,0.931,0.762,1.69,1.692,1.69
		h11.167c0.93,0,1.691-0.761,1.691-1.69v-5.355v-10.584v-5.355C19.275,142.012,18.514,141.25,17.584,141.25z M8.825,163.979H7.001
		c-0.335,0-0.608-0.271-0.608-0.605c0-0.337,0.273-0.607,0.608-0.607h1.824c0.335,0,0.608,0.271,0.608,0.607
		C9.433,163.709,9.161,163.979,8.825,163.979z M8.825,161.662H7.001c-0.335,0-0.608-0.271-0.608-0.609
		c0-0.335,0.273-0.607,0.608-0.607h1.824c0.335,0,0.608,0.272,0.608,0.607C9.433,161.391,9.161,161.662,8.825,161.662z
		 M8.825,159.343H7.001c-0.335,0-0.608-0.272-0.608-0.606c0-0.338,0.273-0.609,0.608-0.609h1.824c0.335,0,0.608,0.271,0.608,0.609
		C9.433,159.07,9.161,159.343,8.825,159.343z M8.825,157.023H7.001c-0.335,0-0.608-0.271-0.608-0.607
		c0-0.335,0.273-0.609,0.608-0.609h1.824c0.335,0,0.608,0.274,0.608,0.609C9.433,156.752,9.161,157.023,8.825,157.023z
		 M12.913,163.979h-1.824c-0.336,0-0.608-0.271-0.608-0.605c0-0.337,0.271-0.607,0.608-0.607h1.824c0.336,0,0.608,0.271,0.608,0.607
		C13.52,163.709,13.247,163.979,12.913,163.979z M12.913,161.662h-1.824c-0.336,0-0.608-0.271-0.608-0.609
		c0-0.335,0.271-0.607,0.608-0.607h1.824c0.336,0,0.608,0.272,0.608,0.607C13.521,161.391,13.247,161.662,12.913,161.662z
		 M12.913,159.343h-1.824c-0.336,0-0.608-0.272-0.608-0.606c0-0.338,0.271-0.609,0.608-0.609h1.824c0.336,0,0.608,0.271,0.608,0.609
		C13.52,159.07,13.247,159.343,12.913,159.343z M12.913,157.023h-1.824c-0.336,0-0.608-0.271-0.608-0.607
		c0-0.335,0.271-0.609,0.608-0.609h1.824c0.336,0,0.608,0.274,0.608,0.609C13.521,156.752,13.247,157.023,12.913,157.023z
		 M16.999,163.979h-1.823c-0.337,0-0.609-0.271-0.609-0.605c0-0.337,0.272-0.607,0.609-0.607h1.823c0.336,0,0.608,0.271,0.608,0.607
		C17.607,163.709,17.334,163.979,16.999,163.979z M16.999,161.662h-1.823c-0.337,0-0.609-0.271-0.609-0.609
		c0-0.335,0.272-0.607,0.609-0.607h1.823c0.336,0,0.608,0.272,0.608,0.607C17.607,161.391,17.334,161.662,16.999,161.662z
		 M16.999,159.343h-1.823c-0.337,0-0.609-0.272-0.609-0.606c0-0.338,0.272-0.609,0.609-0.609h1.823c0.336,0,0.608,0.271,0.608,0.609
		C17.607,159.07,17.334,159.343,16.999,159.343z M16.999,157.023h-1.823c-0.337,0-0.609-0.271-0.609-0.607
		c0-0.335,0.272-0.609,0.609-0.609h1.823c0.336,0,0.608,0.274,0.608,0.609C17.607,156.752,17.334,157.023,16.999,157.023z
		 M17.645,154.404H6.357v-11.172h11.288V154.404z"/>
</g>
</svg>
